<?xml version="1.0" standalone="no"?>
<!DOCTYPE svg PUBLIC "-//W3C//DTD SVG 1.1//EN" "http://www.w3.org/Graphics/SVG/1.1/DTD/svg11.dtd" >
<svg xmlns="http://www.w3.org/2000/svg">
<metadata></metadata>
<defs>
<font id="geared_slabextrabold" horiz-adv-x="894" >
<font-face units-per-em="2048" ascent="1536" descent="-512" />
<missing-glyph horiz-adv-x="512" />
<glyph unicode="&#xfb01;" horiz-adv-x="1110" d="M43 768v139q0 59 35 90t94 31v313q0 66 33 109t87 64.5t123.5 22.5t145.5 -17q12 -4 15.5 -11.5t3.5 -21.5v-203q0 -18 -7.5 -21t-11.5 -1q-41 16 -73.5 1.5t-32.5 -59.5v-176h125v-108q0 -61 -31 -107.5t-94 -46.5v-490q2 -16 7 -24t15 -14q16 -10 31.5 -43t15.5 -74 v-119h-422v119q0 41 15.5 73.5t32.5 43.5q8 6 14 13t8 21v496h-129zM630 0v143q0 39 15.5 62.5t31.5 34.5q8 6 14.5 13t8.5 21v465q-2 23 -25 37q-14 10 -29.5 32.5t-15.5 57.5v158h308q47 0 47 -39v-704q0 -18 6 -27.5t14 -15.5q16 -10 31.5 -34t15.5 -63v-141h-422z M675 1290q0 59 42 102.5t102 43.5q59 0 102 -43t43 -103q0 -59 -43 -101t-102 -42t-101.5 42t-42.5 101z" />
<glyph unicode="&#xfb02;" horiz-adv-x="1103" d="M43 768v139q0 59 35 90t94 31v313q0 66 33 109t87 64.5t123.5 22.5t145.5 -17q12 -4 15.5 -11.5t3.5 -21.5v-203q0 -18 -7.5 -21t-11.5 -1q-41 16 -73.5 1.5t-32.5 -59.5v-176h125v-108q0 -61 -31 -107.5t-94 -46.5v-490q2 -16 7 -24t15 -14q16 -10 31.5 -43t15.5 -74 v-119h-422v119q0 41 15.5 73.5t32.5 43.5q8 6 14 13t8 21v496h-129zM626 0v139q0 39 15.5 61.5t31.5 35.5q8 4 14.5 11t8.5 21v987q-2 14 -8 22.5t-17 16.5q-14 10 -29.5 33t-15.5 57v150h299q23 0 37.5 -16.5t14.5 -40.5v-22.5v-43.5v-101.5v-197.5t1 -331.5t1 -504.5 q0 -20 5 -28.5t15 -14.5q16 -12 31.5 -34.5t15.5 -61.5v-137h-420z" />
<glyph horiz-adv-x="2048" />
<glyph horiz-adv-x="2048" />
<glyph unicode="&#xd;" horiz-adv-x="512" />
<glyph unicode=" "  horiz-adv-x="512" />
<glyph unicode="&#x09;" horiz-adv-x="512" />
<glyph unicode="&#xa0;" horiz-adv-x="512" />
<glyph unicode="!" horiz-adv-x="493" d="M92 1466q0 68 47 68h221q47 0 46 -51q0 -8 -2.5 -74t-5.5 -164t-7 -217t-7 -231.5t-6 -207t-3 -143.5q-4 -43 -37 -43h-176q-16 0 -26.5 9.5t-10.5 25.5q-2 45 -5 135.5t-6 201t-7.5 228t-7.5 217t-5 168t-2 78.5zM113 12v4v187q0 8 15 14t37.5 9t48.5 4t46 1q45 0 85 -7 t40 -17v-191q0 -16 -40 -24t-85 -8q-23 0 -48.5 2t-48 5t-36.5 9t-14 12z" />
<glyph unicode="&#x22;" horiz-adv-x="743" d="M78 1516q0 23 38 26.5t85 3.5q49 0 90 -5t41 -21l-21 -234q0 -16 -30.5 -23.5t-79.5 -7.5q-102 0 -103 29v2zM414 1516q0 23 37 26.5t84 3.5q49 0 90 -5t41 -21l-21 -234q0 -31 -104 -31q-49 0 -78 6.5t-29 22.5v2z" />
<glyph unicode="#" horiz-adv-x="1462" d="M57 319v205q0 10 11 11h305q8 0 12 10l33 149q4 10 -8 11h-265q-10 0 -10 10v207q0 10 10 10h308q8 0 12 8l65 270q4 10 13 11h207q8 0 8 -11l-66 -270q-4 -8 6 -8h150q10 0 14 8l66 270q0 10 12 11h205q12 0 8 -11l-66 -270q-4 -8 9 -8h299q10 0 10 -10v-207 q0 -10 -10 -10h-344q-8 0 -13 -11l-30 -149q-4 -10 8 -10h299q10 0 10 -11v-205q0 -10 -10 -10h-342q-12 0 -12 -10l-68 -287q-4 -10 -14 -10h-205q-12 0 -8 10l67 287q4 10 -6 10h-172q-8 0 -12 -10l-74 -287q-4 -10 -12 -10h-207q-10 0 -6 10l73 287q0 10 -8 10h-241 q-10 0 -11 10zM610 545q0 -10 8 -10h144q12 0 12 10l35 149q0 10 -8 11h-144q-12 0 -12 -11z" />
<glyph unicode="$" horiz-adv-x="942" d="M57 291v194h162q55 0 83 -33.5t28 -80.5v-62q0 -33 44 -57.5t97 -24.5q27 0 51.5 8.5t44 21.5t30.5 28.5t11 29.5v160q0 68 -39 112t-98 77.5t-128 64.5t-128 75t-98 106.5t-39 158.5v172q0 82 32.5 140.5t88 96.5t126 55t146.5 17t146.5 -19.5t126 -57t88 -96 t32.5 -136.5v-192h-153q-51 0 -86 30.5t-35 79.5v64q0 43 -40 66.5t-81 23.5q-43 0 -79 -24.5t-36 -55.5v-160q0 -41 39 -74.5t98.5 -67.5t128 -71t128 -84t98.5 -107.5t39 -142.5v-235q0 -78 -37 -136.5t-95.5 -96.5t-132 -56t-149.5 -18t-150.5 18t-133 56t-94.5 96.5 t-36 136.5zM408 55h114v-166h-114v166zM408 1468v166h114v-166h-114z" />
<glyph unicode="%" horiz-adv-x="1339" d="M57 1128v35v56v26q6 145 67 220t206 75q74 0 126 -24.5t84.5 -64.5t48 -92t15.5 -108v-6v-112v-5q-2 -131 -64.5 -211.5t-209.5 -80.5q-141 0 -201.5 75.5t-71.5 216.5zM272 1120q0 -41 5.5 -63.5t13.5 -33.5t18 -14t21 -3q10 0 21 1t19.5 12t13.5 35.5t5 71.5v2v119 q0 45 -6 68.5t-14.5 34t-19.5 11.5t-19 1t-18.5 -1t-18.5 -11.5t-14.5 -32t-6.5 -62.5v-10v-117v-8zM287 2l512 1530q0 4 6 4h239q4 0 5 -4l-510 -1530q-4 -4 -9 -4h-239q-4 0 -4 4zM735 281v34v58v24q6 145 67 221t206 76q74 0 126 -24.5t84.5 -65.5t48 -93t15.5 -108v-6 v-112v-4q-2 -131 -64.5 -212t-209.5 -81q-141 0 -202 75.5t-71 217.5zM950 272q0 -41 5.5 -63.5t13.5 -33.5t18 -13t21 -2q10 0 21 1t19.5 11t13.5 35.5t5 73.5v118q0 45 -6 69t-14.5 34t-19.5 11t-19 1t-18.5 -1t-18.5 -11t-14.5 -31.5t-6.5 -62.5v-11v-116v-9z" />
<glyph unicode="&#x26;" horiz-adv-x="1153" d="M125 317v236q0 88 26.5 146.5t90.5 86.5q-31 12 -52.5 41t-35 67t-19.5 82t-6 87v162q0 80 32 141t85 103t122.5 64.5t145.5 22.5q119 0 211 -49q10 -4 16.5 -20.5t-10.5 -32.5l-135 -135q-14 -14 -30.5 -14h-51.5q-8 0 -24.5 -3.5t-34 -13.5t-29.5 -27.5t-12 -43.5v-181 q0 -72 19.5 -100.5t84.5 -28.5h94v4q0 10 3 30t13.5 38t31 32.5t55.5 14.5h180v-119h102q10 0 14.5 -5t8.5 -9q4 -6 4 -12v-205q0 -14 -10 -21.5t-21 -7.5h-98v-65v-281q0 -41 38 -60.5t91 -15.5q6 0 16.5 1t19.5 -2t15 -13t6 -29v-104q0 -39 -6 -52.5t-37 -25.5 q-86 -18 -170 -11t-149 46q-90 -49 -205 -49q-76 0 -146.5 22.5t-124 64.5t-86 103.5t-32.5 140.5zM410 326q0 -31 12 -51.5t28.5 -34t35 -18.5t28.5 -5t26.5 2t33 12.5t27.5 31t11 56.5v328h-98q-27 0 -46 -1t-32.5 -10t-19.5 -27.5t-6 -55.5v-227z" />
<glyph unicode="'" horiz-adv-x="366" d="M57 1522q0 23 37 26.5t84 3.5q49 0 90 -5t41 -21l-20 -234q0 -31 -105 -30q-49 0 -77.5 6t-28.5 22v2z" />
<glyph unicode="(" horiz-adv-x="647" d="M57 -33v1600q0 59 15.5 108t49.5 84t89 54.5t133 19.5h240q6 0 6 -4v-256q0 -6 -6 -6h-209q-31 0 -31 -25v-1544q0 -16 11.5 -23.5t21.5 -7.5h207q6 0 6 -6v-242q0 -4 -6 -4h-240q-133 0 -210 73t-77 179z" />
<glyph unicode=")" horiz-adv-x="647" d="M57 -37q0 6 6 6h209q31 0 31 25v1542q0 16 -11 23.5t-22 7.5h-207q-6 0 -6 6v256q0 4 6 4h240q133 0 210 -72.5t77 -179.5v-1599q0 -119 -65.5 -193t-221.5 -74h-240q-6 0 -6 4v244z" />
<glyph unicode="*" horiz-adv-x="526" d="M59 1337l54 142q4 4 8 2l61 -23q6 -4 6 2l5 66q0 6 6 6h143q6 0 6 -6l2 -68q0 -4 6 -4l68 16q4 2 8 -4l37 -145q0 -6 -6 -8l-64 -17q-8 0 -4 -6l43 -63q2 -4 -2 -8l-127 -82q-4 -4 -8 0l-31 47q-4 6 -6 0l-31 -49q-4 -6 -8 -2l-129 79q-4 4 0 9l45 71q2 4 -2 8l-78 29 q-4 4 -2 8z" />
<glyph unicode="+" horiz-adv-x="716" d="M57 516v195q0 6 6 6h187q6 0 6 6v186q0 6 6 6h195q4 0 4 -6v-186q0 -6 6 -6h188q4 0 4 -6v-195q0 -4 -4 -4h-188q-6 0 -6 -6v-189q0 -4 -4 -4h-195q-6 0 -6 4v189q0 6 -6 6h-187q-6 0 -6 4z" />
<glyph unicode="," horiz-adv-x="366" d="M57 14v187q0 16 41 22t88 6t85 -6t38 -20v-189v-39q0 -35 -4 -58t-15 -45t-30.5 -43.5t-50.5 -51.5q-16 -16 -23.5 -13t-19.5 13q-16 12 -15 19t21 28q31 31 43 60.5t9 52t-18.5 36t-39.5 13.5q-47 0 -78 6t-31 22z" />
<glyph unicode="-" horiz-adv-x="501" d="M57 518v195q0 6 4 6h379q4 0 4 -6v-195q0 -6 -4 -6h-379q-4 0 -4 6z" />
<glyph unicode="." horiz-adv-x="374" d="M57 14v2v189q0 18 41 25.5t88 7.5q49 0 90 -8.5t41 -20.5v-193q0 -16 -40.5 -25t-90.5 -9q-51 0 -90 8t-39 24z" />
<glyph unicode="/" horiz-adv-x="645" d="M37 4l315 1526q4 4 8 4h226q4 0 4 -4l-316 -1526q0 -4 -6 -4h-227q-4 0 -4 4z" />
<glyph unicode="0" horiz-adv-x="964" d="M82 313v910q0 158 105.5 243.5t297.5 85.5q195 0 296.5 -86t101.5 -243v-910q0 -158 -102.5 -242.5t-295.5 -84.5q-190 0 -296.5 85t-106.5 242zM360 338q0 -41 15.5 -63.5t37 -34t42 -14.5t30.5 -3t31 4t40 16.5t34.5 37t15.5 65.5v852q0 41 -14 64.5t-33.5 35t-40 14.5 t-33.5 3q-12 0 -32.5 -3t-41 -14.5t-36 -35t-15.5 -64.5v-860z" />
<glyph unicode="1" horiz-adv-x="641" d="M63 1323v39q63 4 118 29.5t77 85.5q2 6 14.5 15t28.5 18.5t34.5 16.5t35.5 7h94h45v-133v-1116q0 -10 11.5 -20.5t17.5 -14.5q16 -10 30.5 -32.5t14.5 -59.5v-158h-74h-270h-64v158q0 35 15.5 56.5t29.5 35.5q18 18 19 35v821q0 20 -25 20q-18 0 -35 2q-35 4 -57 17 q-23 10 -41.5 57t-18.5 121z" />
<glyph unicode="2" horiz-adv-x="874" d="M57 1184v2v37q0 78 30 139t81 104t118.5 65.5t141.5 22.5t143.5 -22.5t124 -65.5t87 -104.5t32.5 -138.5v-213q0 -68 -24.5 -122t-62.5 -99.5t-86 -84t-97 -73.5q-66 -47 -107 -78t-65.5 -54.5t-33.5 -45t-9 -50.5v-84q0 -27 20.5 -40t42.5 -13h182q20 0 27 19 q10 20 40 44.5t77 24.5h98v-301q0 -4 -1 -12t-6 -17.5t-16.5 -16.5t-29.5 -7h-146h-2h-428q-29 0 -52 11.5t-40.5 27.5t-27 35.5t-9.5 38.5v354q0 68 20.5 112t56.5 77.5t82 62.5t97 61q51 33 92.5 58.5t68 52.5t40.5 56.5t14 72.5v172q0 37 -17 66.5t-91 29.5 q-35 0 -55.5 -8t-30.5 -21.5t-13.5 -31t-3.5 -35.5v-6v-111h-126q-72 0 -104 26.5t-32 82.5z" />
<glyph unicode="3" horiz-adv-x="884" d="M57 301v152h181q35 0 55 -14.5t30.5 -33t13.5 -38t3 -29.5v-2v-23q0 -37 11 -57t27.5 -30.5t33 -12.5t26.5 -2t27.5 5t35 18.5t30 34t12.5 50.5v228q0 37 -6.5 55.5t-19.5 27.5t-32.5 10t-46.5 1h-4h-127q-10 0 -20.5 7t-10.5 22v204q0 6 5 13q4 4 8 9t14 5h131 q66 0 85.5 28.5t19.5 100.5v180q0 27 -13.5 44.5t-30 27.5t-33 13t-24.5 3q-6 0 -22.5 -3t-33.5 -12t-29.5 -25.5t-12.5 -45.5v-4v2q0 -10 -1 -28.5t-10.5 -37t-28.5 -32.5t-56 -14h-187v145q4 74 37 130.5t85 96t120 60t139 20.5q76 0 145.5 -22.5t123 -64.5t85 -103.5 t31.5 -140.5v-162q0 -43 -6 -87t-19.5 -82t-34.5 -67t-52 -41q63 -29 89.5 -87t26.5 -146v-236q0 -80 -32.5 -141t-86 -103t-124 -64.5t-146.5 -22.5q-74 0 -142.5 21.5t-120.5 63t-84 101t-34 135.5z" />
<glyph unicode="4" horiz-adv-x="974" d="M61 399v131q0 6 1 13.5t6 19.5q10 33 42.5 110t75.5 175t90.5 204.5t87 197.5t68.5 154.5t33 76.5q16 39 37.5 46t48.5 7h186q23 0 39.5 -8t16.5 -37v-871q0 -12 10 -16q10 0 28.5 -3t36 -15.5t30.5 -34t13 -57.5v-146h-108q-10 0 -10 -20v-39q0 -18 7 -30.5t17 -20.5 q16 -10 30.5 -32t14.5 -61v-143h-90h-254h-67v143q0 37 14 59.5t31 33.5q10 6 15 21t7 28v49q0 12 -12 12h-397q-20 0 -34 12.5t-14 40.5zM322 614q-4 -12 8 -12h174q14 0 14 14v410q-4 10 -7 9t-7 -5q-4 -6 -6 -12q-51 -111 -88 -199q-16 -37 -32 -73.5t-28 -65.5t-20 -48z " />
<glyph unicode="5" horiz-adv-x="901" d="M61 309v45l7 131h55q25 0 55.5 -1t61.5 -1q37 -2 58 -16t33.5 -33.5t16.5 -39t4 -29.5v-19q0 -51 27 -72.5t70 -21.5t73.5 17.5t30.5 52.5v368q0 33 -21.5 49.5t-74.5 16.5q-31 0 -64 -10.5t-33 -34.5v-11h-47h-98q-12 0 -34.5 3.5t-45 13.5t-39 31.5t-16.5 58.5 q2 25 4 76t5 113.5t6 130t6 127t5.5 104.5t4.5 61q2 47 27.5 80t70.5 33h522q80 0 80 -78v-283h-88q-43 0 -87 19.5t-54 38.5q-6 10 -15.5 18t-31.5 8h-105h-2h-27q-23 0 -23.5 -8t-2.5 -28q0 -20 -4 -77t-9 -122q0 -16 13.5 -21.5t19.5 -1.5q31 16 80 22.5t96 6.5 q70 0 121 -24.5t84 -67.5t48.5 -99.5t15.5 -119.5v-406q0 -78 -32 -139t-86 -104t-124 -66t-145 -23q-76 0 -146.5 23t-125 66t-87.5 104t-33 139z" />
<glyph unicode="6" horiz-adv-x="907" d="M61 293v928q0 80 33 141t87.5 103t125 64.5t146.5 22.5t146.5 -22.5t123.5 -64.5t86 -103.5t33 -140.5v-25v-98h-185q-37 0 -57 14t-31.5 32.5t-14.5 36t-3 25.5v6q0 25 -19.5 49.5t-78.5 24.5q-53 0 -77 -22.5t-24 -51.5v-272q0 -16 15 -8q12 6 34.5 11t48 8t50.5 3h41 q143 0 224 -93t81 -253v-295q0 -80 -33 -141t-87 -103t-125 -64.5t-146 -22.5q-76 0 -146.5 19t-126 57t-88.5 96.5t-33 138.5zM346 324q0 -41 12.5 -63.5t30 -33t35.5 -12.5t31 -2q12 0 30.5 2t36 12.5t29.5 33t12 63.5v276q0 41 -11 64.5t-28.5 36t-36 15.5t-32.5 3 t-33 -3t-36 -15.5t-28.5 -36t-11.5 -64.5v-276z" />
<glyph unicode="7" horiz-adv-x="942" d="M61 1241v23v8v164q0 96 127 96h623h20q20 0 35 -12.5t15 -34.5v-281q0 -16 -5.5 -28.5t-9.5 -16.5q-78 -139 -128 -239.5t-80.5 -193.5t-42 -194.5t-9.5 -238.5q0 -18 7.5 -26.5t17.5 -16.5q16 -10 30.5 -53t14.5 -80v-117h-70h-303h-65v117q0 18 4 38.5t11 39t15 34 t17 21.5q14 12 20 24q0 14 1 28.5t1 29.5l2 28q4 125 17.5 226.5t43 202t80 210t125.5 248.5q4 10 -6 13.5t-14 3.5h-160q-23 0 -37 -13.5t-14 -36.5v-88h-172q-37 0 -58.5 14.5t-32.5 33t-15.5 38t-4.5 29.5z" />
<glyph unicode="8" horiz-adv-x="899" d="M61 315v228q0 78 28 140t79 97q6 4 6 18.5t-6 20.5q-43 35 -70.5 89.5t-27.5 119.5v195q0 78 30.5 139t83 104t122 65.5t145.5 22.5t144.5 -22.5t120.5 -65.5t83.5 -104.5t31.5 -138.5v-195q0 -66 -21.5 -121t-64.5 -90q-6 -6 -6 -18.5t6 -16.5q51 -33 73 -97t22 -142 v-228q0 -82 -32 -143t-85 -103t-123.5 -63.5t-148.5 -21.5t-149 21.5t-124 63.5t-85 104.5t-32 141.5zM346 414q0 -82 23.5 -123t81.5 -41q55 0 79.5 41t24.5 123v55q0 82 -24.5 120t-79.5 38q-57 0 -81 -38t-24 -120v-55zM348 1108q0 -82 22.5 -123t80.5 -41q55 0 78.5 41 t23.5 123v16q0 82 -23.5 120t-78.5 38q-57 0 -80 -38t-23 -120v-16z" />
<glyph unicode="9" d="M61 920v297q0 78 32 139t86 104t124 65.5t146 22.5t145.5 -22.5t122.5 -65.5t85 -104.5t32 -138.5v-908q0 -80 -32 -141.5t-84 -103t-122 -64.5t-145 -23q-74 0 -141.5 20.5t-120 59.5t-85 96.5t-34.5 129.5v14q-2 4 -2 12v119h6h168q35 0 56 -14.5t33.5 -33t16.5 -37.5 t4 -30q0 -18 11.5 -31.5t27 -21.5t32.5 -12t28 -4q10 0 26.5 3t32.5 10t27.5 21.5t11.5 38.5v287q0 10 -14.5 8t-22.5 -6q-16 -6 -37.5 -10t-43 -5t-41 -2t-28.5 -1q-143 0 -222 86t-79 246zM346 958q0 -106 103 -106q100 0 100 106v199q0 74 -32 96.5t-68 22.5 q-39 0 -71 -23.5t-32 -95.5v-199z" />
<glyph unicode=":" horiz-adv-x="389" d="M57 240v4v188q0 8 12.5 14.5t32 10.5t44 5t47.5 1q49 0 91 -7.5t42 -21.5v-190q0 -16 -42 -25.5t-91 -9.5t-92.5 7t-43.5 24zM63 801v4v186q0 23 38 28t85 5q25 0 50.5 -2t47 -5t35 -8.5t13.5 -13.5v-190q0 -8 -13.5 -13.5t-35 -9.5t-47 -6t-50.5 -2q-49 0 -86 5t-37 22z " />
<glyph unicode=";" horiz-adv-x="374" d="M57 801v4v186q0 8 12.5 15.5t32 10.5t44 5t47.5 2q49 0 86.5 -7t37.5 -22v-190q0 -16 -37.5 -25.5t-86.5 -9.5t-92.5 7t-43.5 24zM66 248v186q0 16 41 22.5t86 6.5q47 0 85.5 -7t38.5 -20v-188v-41q0 -35 -4 -58.5t-15 -44t-30.5 -42t-50.5 -52.5q-18 -16 -24.5 -13 t-18.5 13q-16 12 -15 19.5t21 27.5q31 31 43.5 60.5t8 51t-19.5 35t-40 13.5q-47 0 -76.5 7t-29.5 24z" />
<glyph unicode="&#x3c;" horiz-adv-x="684" d="M57 616h2l2 5l418 417q4 4 8 0l138 -137q4 -4 0 -8l-273 -272q-2 -6 0 -9l273 -274q4 -4 0 -8l-138 -137q-4 -4 -8 0l-418 419z" />
<glyph unicode="=" horiz-adv-x="718" d="M57 379v194q0 4 6 5h592q6 0 7 -5v-194q0 -6 -7 -6h-592q-6 0 -6 6zM57 659v195q0 6 6 6h592q6 0 7 -6v-195q0 -4 -7 -4h-592q-6 0 -6 4z" />
<glyph unicode="&#x3e;" horiz-adv-x="684" d="M59 328q-4 4 0 8l273 274q2 2 0 8l-273 273q-4 4 0 8l138 137q4 4 8 0l418 -418q0 -2 2 -4h2l-2 -2q0 -2 -1 -2t-1 -2l-418 -418q-4 -4 -8 0z" />
<glyph unicode="?" horiz-adv-x="825" d="M57 1198v57q0 68 27 121.5t74 90t111.5 55t138.5 18.5t138 -19.5t112.5 -58.5t76 -97t27.5 -136v-234q0 -78 -40 -130t-89 -94t-89 -80t-40 -85v-241q0 -23 -10.5 -33t-20.5 -10h-194q-39 0 -39 43v284q0 68 41 115t90 87t90 76t41 79v211q0 31 -12.5 47t-28 24t-30.5 10 t-23 2t-23.5 -2t-31 -11t-28 -25.5t-12.5 -47.5v3v-130h-118q-72 0 -105 34t-33 77zM240 29v4v172q0 16 43 22t88 6q23 0 47 -2t43.5 -5t33 -8t13.5 -11v-174q0 -8 -13.5 -14.5t-33 -10.5t-44 -6t-46.5 -2q-47 0 -89 7t-42 22z" />
<glyph unicode="@" horiz-adv-x="1488" d="M63 543q0 182 59.5 328.5t163 249t241.5 156.5t298 54q141 0 254 -30.5t193 -97t123 -169t43 -246.5q0 -135 -27 -226t-66.5 -150.5t-86 -91t-87.5 -47t-69.5 -17.5t-32.5 -2q-72 0 -125 12.5t-88 59.5q-20 -23 -51 -37q-27 -14 -67 -22.5t-93 -4.5q-72 6 -128 34t-90 78 t-42 124.5t16 175.5q41 166 123 240.5t207 78.5q47 2 84 -5t62.5 -16t38.5 -18l14 -8q8 14 16 23q23 29 74 28h156v-67q0 -35 -14.5 -56.5t-31.5 -33.5q-18 -10 -20 -29l-86 -328q-4 -27 17.5 -41t48.5 -14q61 0 96 33t50 85t18 118.5t3 132.5q0 106 -30.5 179t-90 119 t-144.5 66.5t-193 20.5q-119 0 -222.5 -50.5t-181.5 -134.5t-123 -197.5t-45 -238.5q0 -121 31 -204t86 -136t130 -76.5t165 -23.5q92 0 157.5 14.5t100.5 26.5q14 4 22.5 -1t10.5 -16q2 -10 7 -40.5t9 -53.5q4 -20 0 -26.5t-14 -10.5q-29 -14 -99.5 -33.5t-164.5 -19.5 q-143 0 -256 32t-190 101.5t-118 180t-41 268.5zM593.5 493.5q18.5 -55.5 111.5 -61.5q41 -2 64.5 6t35.5 19q14 12 18 28l82 297q-14 18 -37 31q-18 10 -45.5 16.5t-62.5 1.5q-66 -10 -96.5 -55t-59.5 -135q-29 -92 -10.5 -147.5z" />
<glyph unicode="A" horiz-adv-x="1075" d="M47 0v143q0 35 15.5 57.5t29.5 32.5q10 8 18.5 18.5t12.5 27.5q57 272 104 489q20 92 39 180t34 158t24.5 113t9.5 45q4 16 4 29.5t-10 17.5q-23 10 -37.5 33.5t-14.5 70.5v117h318q47 0 74.5 -28.5t33.5 -63.5q0 -8 11.5 -62.5t30 -137.5t41 -186.5t44.5 -209.5 q53 -250 123 -565q6 -28 31 -46q16 -10 30.5 -32.5t14.5 -57.5v-143h-410v119q0 37 14.5 67.5t31.5 40.5q10 8 17 16.5t7 26.5q-2 16 -4 31q-2 12 -5 25.5t-5 23.5q-4 16 -14.5 21.5t-26.5 5.5h-193q-18 0 -25 -3t-12 -24q-2 -10 -4 -23.5t-6 -25.5q-4 -14 -6 -31 q0 -18 4 -26t15 -17q16 -10 30.5 -41.5t14.5 -68.5v-117h-404zM440 631q-1 -4 -1 -7q0 -6 3 -8q4 -4 19 -4h149q14 0 18 3q3 2 4 9q0 3 -1 7q0 4 -7.5 43t-16.5 94t-20.5 119.5t-20.5 120t-16 92.5t-7 39q0 7 -4 7h-1q-6 -1 -8 -5q0 -2 -6 -40t-16 -93.5t-21.5 -119 t-21.5 -119.5t-17.5 -95t-7.5 -43z" />
<glyph unicode="B" horiz-adv-x="1005" d="M57 0v127q0 41 11.5 63.5t31.5 32.5q10 4 18.5 15.5t8.5 29.5v994q0 33 -25 43q-20 10 -32.5 33.5t-12.5 68.5v125h494q174 0 260 -91t86 -243v-172q0 -63 -11.5 -119.5t-49.5 -91.5q-10 -10 -8 -18.5t12 -14.5q47 -33 62.5 -94t15.5 -135v-223q0 -152 -86.5 -241 t-260.5 -89h-514zM408 268q0 -12 8 -23.5t20 -11.5h101q53 0 74.5 37t21.5 92v173q0 72 -22.5 113.5t-73.5 41.5h-93q-16 0 -26 -10t-10 -25v-387zM408 961q0 -29 12 -36t35 -10h51q47 0 76.5 29t29.5 82v133q0 68 -28.5 99.5t-81.5 31.5h-47q-29 0 -38 -8t-9 -35v-286z" />
<glyph unicode="C" horiz-adv-x="983" d="M88 297v950q0 78 35 136.5t92 96.5t130 57t149 19t148.5 -19t128.5 -57t90 -96.5t34 -136.5v-151h-154q-51 0 -85.5 30.5t-34.5 79.5v2q0 20 -5.5 41t-18.5 36t-39 24.5t-66 9.5q-39 0 -64 -10.5t-39 -24.5t-19 -32.5t-5 -32.5v-897q0 -29 36.5 -59t90.5 -30q53 0 92 25 t39 57v21q0 47 27.5 81t82.5 34h162v-154q0 -78 -35 -136.5t-91 -96t-128.5 -56t-148.5 -18.5t-149 18.5t-129 56t-91 96t-35 136.5z" />
<glyph unicode="D" horiz-adv-x="1007" d="M57 -2v123q0 45 11.5 68.5t31.5 33.5q25 14 25 43v991q0 33 -27 48q-41 23 -41 94v131h527q160 0 248 -90t88 -244v-864q0 -154 -88.5 -244t-247.5 -90h-527zM408 262q0 -10 3 -18t19 -11h82q66 0 96.5 20.5t30.5 68.5v837q0 68 -29.5 98.5t-81.5 30.5h-92 q-23 -2 -25.5 -14t-2.5 -25v-987z" />
<glyph unicode="E" horiz-adv-x="927" d="M57 0v123q0 45 12.5 68.5t32.5 33.5q25 14 25 43v996q0 33 -27 47q-20 10 -31.5 31.5t-11.5 62.5v129h734q25 0 42 -18.5t17 -34.5v-271h-121q-41 0 -65.5 20.5t-34.5 39.5q-14 25 -43 24h-154q-10 0 -19.5 -9t-9.5 -19v-340q0 -14 9.5 -21.5t21.5 -7.5h258q10 0 21.5 -7 t11.5 -24v-164q0 -29 -31 -28h-260q-31 0 -31 -27v-383q0 -12 10.5 -20t22.5 -8h164q18 0 29 20q4 10 10 24.5t17.5 26.5t27.5 21.5t39 9.5h127v-287q0 -23 -22.5 -37t-45.5 -14h-133h-469h-123z" />
<glyph unicode="F" horiz-adv-x="901" d="M57 2v129q0 35 16.5 57.5t32.5 34.5q8 6 13.5 12.5t7.5 22.5v1006q0 33 -25 43q-20 10 -32.5 32.5t-12.5 69.5v123h734q16 0 34.5 -16.5t18.5 -40.5v-269h-88q-43 0 -77 20.5t-44 39.5q-6 10 -15.5 18t-31.5 8h-148q-14 0 -24 -9t-10 -21v-342q0 -18 10 -24.5t26 -6.5 h248q16 0 22.5 -24.5t6.5 -39.5v-129q0 -29 -27 -28h-256q-10 0 -20 -8.5t-10 -22.5v-369q0 -23 6 -31t16 -14q16 -12 31.5 -34.5t15.5 -57.5v-129h-418z" />
<glyph unicode="G" horiz-adv-x="993" d="M88 295v950q0 158 103.5 233.5t295.5 75.5q190 0 304 -76.5t114 -232.5v-139h-184q-57 0 -82 21.5t-25 70.5v2q0 57 -35.5 87t-91.5 30q-57 0 -89.5 -28.5t-32.5 -94.5v-815q0 -82 37.5 -117t93.5 -35q57 0 95 36t38 108v168q0 23 -9.5 34t-25.5 21q-37 20 -37 133v74 h285q31 0 47 -19.5t16 -50.5v-713q0 -20 -22 -20h-62q-18 0 -22 14q-10 16 -23.5 23.5t-28 8.5t-27.5 -3t-22 -8q-82 -45 -209 -45q-84 0 -156.5 18.5t-126.5 56t-86 96t-32 136.5z" />
<glyph unicode="H" horiz-adv-x="1085" d="M57 0v129q0 35 16.5 57.5t32.5 34.5q10 6 15.5 14.5t5.5 30.5h2v53v947h-2q0 20 -5 28.5t-16 16.5q-16 12 -32.5 34.5t-16.5 57.5v129h422v-129q0 -35 -16.5 -57.5t-32.5 -34.5q-10 -8 -15 -16.5t-5 -28.5v-318q0 -16 10 -22t20 -6h209q29 0 29 28v318q0 20 -5 28.5 t-16 16.5q-16 12 -32.5 34.5t-16.5 57.5v129h420v-129q0 -35 -16.5 -57.5t-32.5 -34.5q-8 -8 -14.5 -16.5t-6.5 -28.5v-1000q0 -23 6.5 -31t14.5 -14q16 -12 32.5 -34.5t16.5 -57.5v-129h-420v129q0 35 16.5 57.5t32.5 34.5q10 6 15.5 14.5t5.5 30.5v383q0 29 -31 29h-209 q-29 0 -28 -29v-383q0 -23 5 -31t15 -14q16 -12 32.5 -34.5t16.5 -57.5v-129h-422z" />
<glyph unicode="I" horiz-adv-x="534" d="M57 0v129q0 35 16.5 57.5t32.5 34.5q10 6 15.5 14.5t5.5 30.5v998v2q0 20 -5 28.5t-16 16.5q-16 12 -32.5 34.5t-16.5 57.5v129h420v-129q0 -35 -16.5 -57.5t-32.5 -34.5q-8 -8 -14 -16.5t-6 -28.5v-2v-998q0 -23 6 -31t14 -14q16 -12 32.5 -34.5t16.5 -57.5v-129h-420z " />
<glyph unicode="J" horiz-adv-x="974" d="M57 315v138h168q35 0 57.5 -11.5t35 -29t16.5 -37t4 -33.5q0 -59 32.5 -88t78.5 -29q45 0 81.5 29t36.5 88v922v2q0 20 -5 28.5t-15 16.5q-16 12 -32.5 34.5t-16.5 57.5v129h63h234h116h7v-129q0 -35 -16.5 -57.5t-33.5 -34.5q-8 -6 -13 -14.5t-7 -24.5v-957 q0 -78 -34 -139t-90 -103t-128 -63.5t-147 -21.5q-76 0 -147 21.5t-125 63.5t-87 103.5t-33 138.5z" />
<glyph unicode="K" horiz-adv-x="1081" d="M57 0v109v20q0 35 16.5 57.5t32.5 34.5q10 8 15.5 16.5t5.5 28.5v68v932q0 23 -5 31t-16 14q-16 12 -32.5 34.5t-16.5 57.5v20v107v2h416v-129q0 -35 -16.5 -57.5t-32.5 -34.5q-8 -6 -14.5 -14.5t-6.5 -30.5v-285l277 496q12 14 27 26q12 10 30.5 19.5t42.5 9.5h174v-129 q0 -84 -45 -103q-18 -8 -33.5 -17t-21.5 -23q-4 -8 -33.5 -59.5t-65.5 -116t-69 -125t-45 -85.5q-4 -10 -3 -18t5 -25l217 -524q10 -23 25.5 -36t32 -21t32 -11.5t25.5 -7.5q23 -10 36 -25.5t13 -62.5v-143h-66h-139h-22q-51 0 -76 19.5t-53 82.5l-207 488l-58 -105v-219 q0 -20 6.5 -28.5t14.5 -16.5q16 -12 32.5 -34.5t16.5 -57.5v-129h-14h-402z" />
<glyph unicode="L" horiz-adv-x="923" d="M57 0v131q0 45 11.5 68.5t31.5 33.5q10 4 18.5 14.5t8.5 24.5v981v13q0 20 -5 28.5t-16 16.5q-16 12 -32.5 34.5t-16.5 57.5v129h422v-129q0 -35 -16.5 -57.5t-32.5 -34.5q-10 -8 -15 -16.5t-5 -28.5v-996q0 -35 26 -34h152q14 0 27.5 10t19.5 20q10 20 34.5 49t69.5 29 h127v-264q0 -41 -22.5 -60.5t-38.5 -19.5h-29h-719z" />
<glyph unicode="M" horiz-adv-x="1462" d="M57 1399v133h291q14 0 24.5 -7t20.5 -32q18 -41 49 -101.5t66 -127t71.5 -133t65.5 -120t49 -87.5l19 -33q10 -14 20 -15.5t21 15.5q27 43 55 94q25 43 55.5 96.5t65.5 110.5q78 131 178 299q12 27 25.5 34t29.5 7h242v-133q0 -35 -11.5 -56.5t-25.5 -33.5 q-16 -14 -35 -21v-1022h2q0 -20 5.5 -28.5t15.5 -16.5q16 -12 32.5 -34.5t16.5 -57.5v-129h-422v129q0 35 16.5 57.5t32.5 34.5q10 8 15.5 16.5t5.5 28.5v594q0 4 -1 6t-5 -6q-61 -96 -111 -176q-23 -35 -43.5 -67.5t-36.5 -60.5t-28.5 -48.5t-16.5 -26.5 q-10 -18 -32.5 -26.5t-47 -8.5t-47 8.5t-31.5 24.5q-4 6 -15 26.5t-27.5 49.5t-37 62.5t-41.5 68.5q-49 82 -108 182q-2 4 -6 4t-4 -8v-598q0 -20 5 -28.5t15 -16.5q16 -12 32.5 -34.5t16.5 -57.5v-129h-420v129q0 35 16.5 57.5t33.5 34.5q8 8 13 15.5t7 25.5v1026 q-23 6 -39 21q-14 12 -25.5 33.5t-11.5 56.5z" />
<glyph unicode="N" horiz-adv-x="1120" d="M57 1397v135h285q25 0 43 -24.5t25 -45.5q4 -14 26.5 -70.5t55 -135t70.5 -169t71 -170t56.5 -139t29.5 -76.5q2 -4 3 0.5t1 10.5v551q0 18 -8 27t-19 16q-14 10 -28.5 31.5t-14.5 58.5v135h410v-137q0 -33 -15.5 -54.5t-31.5 -33.5q-6 -4 -11.5 -11.5t-7.5 -21.5v-1215 q0 -37 -13 -48t-36 -11h-125q-57 0 -80 49q-6 12 -32.5 74.5t-63.5 148.5t-78 183.5t-75.5 180.5t-59 139t-24.5 59q0 2 -2 -0.5t-2 -14.5v-551q0 -18 8 -26.5t18 -14.5q14 -10 29.5 -32.5t15.5 -57.5v-137h-411v139q0 33 15 54.5t32 31.5q6 6 11 12.5t7 20.5v1026 q-20 6 -37 21q-14 12 -25.5 34.5t-11.5 57.5z" />
<glyph unicode="O" horiz-adv-x="993" d="M88 313v910q0 158 109.5 243.5t302.5 85.5q195 0 300 -86t105 -243v-910q0 -158 -106 -242.5t-299 -84.5q-190 0 -301 85t-111 242zM375 332q0 -31 12 -51.5t30.5 -32.5t41 -18.5t41.5 -6.5q43 0 82 24.5t39 86.5v864q0 37 -14.5 59.5t-34 35t-40 17.5t-32.5 5t-33 -4 t-41 -15.5t-35.5 -32t-15.5 -55.5v-876z" />
<glyph unicode="P" horiz-adv-x="987" d="M57 1413v119h582q70 0 120 -31t82.5 -77t48 -101t15.5 -102v-277q0 -76 -19.5 -139.5t-60.5 -109.5t-104.5 -71.5t-151.5 -25.5h-125q-31 0 -30 -25v-309q0 -20 6 -28.5t14 -16.5q16 -12 32.5 -34.5t16.5 -57.5v-129h-420v129q0 35 16.5 57.5t33.5 34.5q8 6 14 14.5 t6 26.5v1006q0 16 -1 26.5t-13 18.5q-20 10 -41 34.5t-21 67.5zM414 848q0 -12 7 -23.5t42 -13.5h47q68 0 92.5 42t24.5 114v209q0 72 -35 94t-80 22h-47q-35 -2 -43 -13t-8 -26v-405z" />
<glyph unicode="Q" horiz-adv-x="995" d="M88 293v952q0 78 31 136.5t85 96.5t128 56t160 18t160.5 -18t130 -56t87 -96.5t31.5 -136.5v-952q0 -41 -9 -73t-22.5 -54.5t-31 -39.5t-33.5 -30q-4 -4 -1 -9t7 -7q2 -2 5 -2t7 -2l8 -4q6 -2 18.5 -9.5t26 -18.5t22.5 -27.5t9 -36.5v-164q-86 0 -150.5 16t-110.5 37.5 t-74.5 44.5t-43.5 35q-8 8 -22 22.5t-35 14.5q-61 0 -128 18.5t-124 56t-94 96t-37 136.5zM369 319q0 -27 13 -45t32.5 -29.5t41 -16.5t36.5 -5q14 0 35.5 6.5t42 16.5t34.5 26.5t14 38.5v908q0 20 -13 36.5t-32.5 28.5t-41 18.5t-39.5 6.5t-40 -6.5t-40.5 -16.5 t-30.5 -26.5t-12 -36.5v-904z" />
<glyph unicode="R" horiz-adv-x="1034" d="M57 -6v110q0 35 5.5 60.5t21.5 36.5q10 8 20.5 25.5t10.5 33.5v979q0 16 -2 36.5t-11 24.5q-16 10 -30.5 33t-14.5 64v129h508q154 0 233 -95.5t79 -246.5v-185q0 -66 -16.5 -120t-57.5 -88q-4 -2 -6 -11.5t8 -15.5q45 -35 59.5 -75t14.5 -116v-315q0 -18 8 -26.5 t18 -16.5q14 -10 30.5 -31.5t16.5 -58.5v-131h-229q-27 0 -49.5 15.5t-39 38t-25.5 49t-9 48.5v359q0 37 -11 59.5t-26.5 34.5t-34 16t-32.5 4h-45q-35 -2 -44.5 -8t-9.5 -26v-326q0 -18 17.5 -32.5t27.5 -24.5q16 -16 20.5 -35t4.5 -55v-117h-410zM397 885q0 -20 8.5 -25.5 t36.5 -5.5h47q53 0 85 18.5t32 90.5v194q0 72 -19.5 100.5t-84.5 28.5h-84q-20 0 -21 -33v-368z" />
<glyph unicode="S" horiz-adv-x="991" d="M88 291v174h168q55 0 83 -34t28 -81v-41q0 -33 37.5 -57.5t91.5 -24.5q53 0 89 30t36 58v160q0 68 -38 112t-94.5 77.5t-123 64.5t-123 75t-94 106.5t-37.5 158.5v172q0 82 31.5 140.5t85 96.5t123 55t145.5 17t145.5 -19.5t121.5 -57t83 -96t31 -136.5v-172h-154 q-51 0 -86 30.5t-35 80.5v43q0 43 -33.5 66.5t-74.5 23.5q-43 0 -73 -24.5t-30 -55.5v-160q0 -41 38 -74.5t95.5 -67.5t123 -71t122.5 -84t95 -107.5t38 -142.5v-235q0 -78 -36 -136.5t-93 -96.5t-130 -56t-148 -18q-76 0 -150 18t-131 56t-92 96.5t-35 136.5z" />
<glyph unicode="T" horiz-adv-x="1007" d="M47 1202v113v133q0 47 22.5 64.5t57.5 17.5h756q43 0 60.5 -14.5t17.5 -67.5v-143v-103h-119q-53 0 -80 49q-10 23 -19.5 31t-44.5 8h-26q-27 0 -27 -35l-4 -991q0 -20 8 -28.5t19 -16.5q14 -10 28.5 -31.5t14.5 -58.5v-131h-418v131q0 35 15.5 57.5t31.5 32.5 q10 8 16 18.5t6 26.5v998q0 14 -12 21t-22 7h-21q-12 0 -29.5 -6t-29.5 -33q-14 -29 -31.5 -39t-62.5 -10h-107z" />
<glyph unicode="U" horiz-adv-x="1040" d="M57 1386v146h414v-135q0 -35 -16.5 -63.5t-32.5 -41.5q-10 -8 -15.5 -16t-5.5 -27v-884q0 -80 34 -112t91 -32t91 32t34 112v882q0 18 -9 33.5t-19 24.5q-16 10 -28.5 32.5t-12.5 61.5v133h401v-148q0 -35 -16.5 -57t-32.5 -35q-8 -8 -13.5 -16t-7.5 -27v-956 q0 -78 -32.5 -136.5t-86 -97.5t-123 -57t-145.5 -18t-147.5 18t-127.5 57t-90 97.5t-34 136.5v954q0 18 -6 27.5t-17 15.5q-16 10 -31.5 34t-15.5 62z" />
<glyph unicode="V" horiz-adv-x="1124" d="M66 1401v131h411v-131q0 -37 -14 -58.5t-29 -31.5q-18 -12 -18 -45l151 -969l146 969q0 18 -7.5 27.5t-17.5 17.5q-16 10 -30.5 31.5t-14.5 58.5v131h416v-131q0 -35 -15.5 -57.5t-31.5 -32.5q-10 -8 -17.5 -18.5t-11.5 -26.5l-102 -586q-18 -111 -37 -216.5t-33 -188 t-23.5 -134t-9.5 -53.5q-6 -37 -19.5 -62.5t-39.5 -25.5h-287q-53 0 -67 68l-230 1198q-4 20 -9 28.5t-15 16.5q-16 10 -30.5 32.5t-14.5 57.5z" />
<glyph unicode="W" horiz-adv-x="1712" d="M57 1401v131h416v-131q0 -37 -14.5 -58.5t-30.5 -31.5q-10 -8 -17.5 -17.5t-7.5 -27.5l78 -969q68 322 121 577q23 109 45.5 214.5t38.5 190.5t27.5 139.5t13.5 60.5q2 12 16.5 21t35 16.5t42 11.5t35.5 4q47 0 91 -16.5t48 -36.5q0 -6 10.5 -59.5t27 -136.5t37 -188.5 t40.5 -215.5q49 -258 111 -582l88 969q0 18 -7.5 27.5t-17.5 17.5q-16 10 -30.5 31.5t-14.5 58.5v131h416v-131q0 -35 -15.5 -57.5t-31.5 -32.5q-10 -8 -17.5 -18.5t-11.5 -26.5q-35 -330 -59 -590q-12 -111 -22.5 -216.5t-19 -188.5t-13.5 -133l-5 -50q-4 -39 -18.5 -63.5 t-40.5 -24.5h-301q-29 2 -44.5 19.5t-23.5 48.5l-180 868l-180 -868q-12 -68 -68 -68h-305q-51 0 -59 88q0 2 -4.5 53.5t-12.5 134t-17 188t-20 216.5l-53 586q-4 16 -11 26.5t-18 18.5q-16 10 -31.5 32.5t-15.5 57.5z" />
<glyph unicode="X" horiz-adv-x="1036" d="M57 1415v117h62h131q47 0 76.5 -16.5t46.5 -67.5v-2q0 -2 20.5 -56.5t45 -125t48 -139t31.5 -99.5l111 248q2 8 4 17t-8 18q-16 12 -38 34.5t-22 57.5v131h406v-131q0 -37 -14.5 -59.5t-28.5 -32.5q-8 -4 -15.5 -11.5t-15.5 -29.5l-9 -20q-9 -21 -24.5 -55t-34 -76 t-38.5 -87q-47 -104 -105 -235q-2 -4 -2 -9q-2 -4 -2 -8v-6v-12q0 -4 2 -8l197 -461q6 -16 22 -27.5t39 -17.5q23 -10 30 -37t7 -72v-137h-47h-117q-51 0 -82 13.5t-53 72.5q0 2 -8 20.5t-19.5 48t-27 66.5t-29.5 74l-82 201l-37 -119l-37 -119q-2 -4 -3 -15.5t12 -21.5 q16 -12 31.5 -33.5t15.5 -56.5v-131h-420v131q0 35 17.5 57.5t33.5 32.5q6 4 11 11.5t14 27.5l194 477q0 6 2 13q0 4 1 8t1 8t-1 8t-1 8q-2 6 -2 13l-192 460q-6 20 -14.5 31.5t-37.5 20.5q-45 18 -45 108z" />
<glyph unicode="Y" horiz-adv-x="1032" d="M57 1403v131h394v-139q0 -37 -3.5 -55.5t-19.5 -28.5q-10 -6 -20.5 -14.5t-6.5 -26.5q0 -4 6.5 -25.5t13.5 -53.5t17.5 -71t20.5 -78q23 -94 53 -206l4 6q31 115 55 207q10 39 20.5 76.5t18.5 68.5t13.5 52.5t7.5 25.5q4 16 -6.5 24.5t-20.5 14.5q-14 10 -18 32.5 t-4 59.5v131h393v-131q0 -35 -15.5 -57.5t-29.5 -34.5q-8 -4 -20.5 -12.5t-16.5 -24.5q-2 -4 -12.5 -37t-26.5 -85t-37.5 -117.5t-42.5 -133.5q-51 -158 -112 -358v-277q0 -20 6 -28.5t16 -16.5q16 -10 31.5 -32.5t15.5 -61.5v-127h-416v129q0 35 16.5 57.5t33.5 34.5 q8 6 13 14.5t7 26.5v281q-70 203 -125 362q-25 68 -47.5 134.5t-40.5 118.5t-29.5 85t-11.5 37q-4 10 -13 18.5t-14 12.5q-16 12 -31.5 34.5t-15.5 57.5z" />
<glyph unicode="Z" horiz-adv-x="880" d="M57 53v193q0 23 2 28q2 6 4 11q123 264 222 473q41 88 81 174t72.5 154.5t52 111.5t21.5 47q4 12 -4 21.5t-29 9.5h-139q-18 0 -31.5 -6t-13.5 -23v-69h-100q-53 0 -83 31.5t-30 78.5v195q0 49 45 49h135h483q25 0 40.5 -14.5t15.5 -38.5v-191q0 -10 -1 -17t-3 -14 q-2 -8 -2 -12q-115 -262 -207 -469q-39 -88 -77 -173t-67.5 -152.5t-49 -110.5t-19.5 -45q-4 -14 0 -28.5t20 -14.5h213q0 41 22.5 71.5t86.5 30.5h106v-303q0 -25 -13 -37t-36 -12h-665q-23 0 -37.5 15.5t-14.5 35.5z" />
<glyph unicode="[" horiz-adv-x="647" d="M57 -29v1588v12v256q0 4 6 4h275h12h234q6 0 6 -4v-256q0 -6 -6 -6h-234q-6 0 -6 -6v-1588q0 -6 6 -6h234q6 0 6 -6v-242q0 -4 -6 -4h-234h-12h-275q-6 0 -6 4v242v12z" />
<glyph unicode="\" horiz-adv-x="643" d="M59 1526q-4 4 4 4h244q8 0 8 -4l289 -1524q0 -4 -4 -4h-235q-6 0 -7 4z" />
<glyph unicode="]" horiz-adv-x="647" d="M57 -41q0 6 6 6h232q6 0 6 6v1588q0 6 -6 6h-232q-6 0 -6 6v256q0 4 6 4h232h12h277q6 0 6 -4v-254v-12v-1588v-12v-244q0 -4 -6 -4h-277h-12h-232q-6 0 -6 4v242z" />
<glyph unicode="^" horiz-adv-x="708" d="M106 1276q-4 0 0 4l246 246h2h2l246 -246v-4l-72 -74h-6l-168 168q-4 4 -4 0l-168 -168h-6z" />
<glyph unicode="_" horiz-adv-x="1087" d="M57 6v195q0 6 6 6h961q6 0 6 -6v-195q0 -6 -6 -6h-961q-6 0 -6 6z" />
<glyph unicode="`" horiz-adv-x="501" d="M88 1348q-6 6 0 6l82 94q-2 2 0 2t6 -2l211 -221q4 0 4 -6l-49 -58q0 -4 -6 0z" />
<glyph unicode="a" horiz-adv-x="911" d="M57 322v26q0 82 29 133t77 82t111.5 46.5t135.5 27.5q25 4 43 9t30 11q14 8 25 15v67q0 23 -18.5 39.5t-51.5 16.5q-29 0 -54.5 -12.5t-25.5 -37.5q0 -18 -13 -23t-44 -5h-221v55q0 51 23.5 98.5t69.5 84t112.5 59t154.5 22.5t155 -23.5t111 -63.5t66.5 -90t22.5 -101 l-2 -504q0 -16 9 -27.5t17 -17.5h-2q16 -10 26.5 -40t10.5 -69v-100h-240q-25 0 -40 14.5t-19 30.5q-29 -25 -67.5 -40t-98.5 -15q-100 0 -164.5 26.5t-101.5 72.5t-51.5 106.5t-14.5 126.5zM342 324q0 -55 30 -80q25 -22 56 -22q5 0 10 1q20 2 32.5 8.5t23.5 12.5 q8 8 16 14v242q-10 -4 -18 -8t-19.5 -7.5t-21.5 -7.5q-25 -8 -44.5 -15t-34 -21.5t-22.5 -39t-8 -63.5v-14z" />
<glyph unicode="b" horiz-adv-x="917" d="M57 -2v149q0 39 15.5 61.5t31.5 35.5q10 6 16.5 14t6.5 29v979q0 16 -6 26.5t-17 18.5q-16 10 -31.5 32.5t-15.5 57.5v131h262q37 0 64 -16.5t27 -81.5v-453q27 14 57 25q27 10 59.5 18t67.5 8q68 0 118 -25.5t82.5 -70.5t49 -107.5t16.5 -134.5v-370q0 -78 -25.5 -139.5 t-71.5 -104.5t-109.5 -65.5t-139.5 -22.5q-61 0 -96 9t-70 36q-4 -12 -12 -21q-18 -18 -55 -18h-224zM410 270q8 -8 16 -14q18 -14 49 -14q35 0 69 25.5t34 62.5v338q0 37 -11.5 59.5t-28 32.5t-36.5 12q-6 1 -12 1q-12 0 -23 -3q-31 -8 -45 -27q-8 -8 -12 -18v-455z" />
<glyph unicode="c" horiz-adv-x="854" d="M57 319v386q0 90 30 153.5t80 102t117.5 56t143.5 17.5q74 0 140.5 -21.5t116.5 -60.5t80 -93t30 -118v-104h-201q-29 0 -44 1t-24.5 8t-11.5 22.5t-2 46.5q0 53 -28.5 67.5t-57.5 14.5t-56.5 -15.5t-27.5 -72.5v-398q0 -49 26.5 -63.5t63.5 -14.5t62.5 20.5t25.5 55.5 q0 47 23.5 69.5t77.5 22.5h176v-118q0 -78 -29 -132.5t-78 -90t-115.5 -52t-140.5 -16.5q-76 0 -143.5 16.5t-119.5 54t-83 100t-31 156.5z" />
<glyph unicode="d" horiz-adv-x="921" d="M59 328v370q0 74 16.5 134.5t50.5 105.5t85 69.5t117 24.5q35 0 68.5 -5t60.5 -11q31 -8 59 -17v287q0 16 -6 16.5t-16 8.5q-16 10 -32 32.5t-16 57.5v131h265q37 0 60.5 -16.5t23.5 -81.5v-1145q0 -20 5 -28.5t15 -14.5q16 -12 32.5 -35t16.5 -61v-150h-219q-23 0 -35 5 t-20 13t-12 21q-35 -27 -88.5 -37t-114.5 -10q-154 0 -235 89t-81 247zM344 334q0 -31 12.5 -49.5t31 -29.5t40.5 -14q9 -1 17 -1q11 0 22 2q14 2 23.5 8t15.5 12q8 8 10 14v459q-10 6 -18 13q-18 10 -41 16q-8 1 -16 1q-32 -1 -61 -19q-36 -24 -36 -76v-336z" />
<glyph unicode="e" horiz-adv-x="860" d="M57 317v375q0 78 30 141.5t80 107.5t117.5 68.5t143.5 24.5t144.5 -24.5t119.5 -68.5t81 -107.5t30 -141.5v-104q0 -53 -14.5 -79t-79.5 -26h-371v-182q0 -23 11 -36t26.5 -20t31 -9.5t21.5 -2.5q12 0 29.5 3.5t33 10.5t25.5 20.5t10 35.5v2q0 47 34 69.5t89 22.5h154 v-133q0 -68 -32 -119t-85 -85.5t-122.5 -52t-145.5 -17.5t-141.5 21.5t-114.5 63.5t-77 103.5t-28 138.5zM338 639h180v68q0 33 -10 52t-24.5 28.5t-30 12.5t-25.5 3t-24.5 -3t-30 -13.5t-25.5 -29t-10 -50.5v-68z" />
<glyph unicode="f" horiz-adv-x="626" d="M43 768v139q0 59 35 90t94 31v313q0 66 33 109t87 64.5t124 22.5h7q66 0 138 -17q12 -4 15.5 -11.5t3.5 -21.5v-203q0 -18 -7.5 -21t-11.5 -1q-22 8 -41 8q-17 0 -32 -6q-33 -15 -33 -60v-176h125v-108q0 -61 -31 -107.5t-94 -46.5v-490q2 -16 7 -24t15 -14 q16 -10 31.5 -43t15.5 -74v-119h-422v119q0 41 15.5 73.5t32.5 43.5q8 6 14 13t8 21v496h-129z" />
<glyph unicode="g" horiz-adv-x="919" d="M57 317v371q0 158 75 250t226 92q39 0 76 -8t67.5 -19.5t50 -22.5t23.5 -15q2 16 9 28q4 10 13 20.5t24 10.5h241v-104q0 -39 -16.5 -69t-32.5 -42q-10 -6 -15 -14.5t-5 -28.5v-983q0 -78 -33 -138.5t-86 -102.5t-123 -64.5t-145 -22.5q-74 0 -134.5 24.5t-103.5 65.5 t-66.5 93.5t-23.5 107.5v98h192q27 0 45.5 -20.5t18.5 -52.5v-4q0 -41 23.5 -53.5t48.5 -12.5q12 0 30.5 2t35.5 9t29.5 24.5t12.5 48.5v244q-2 -4 -16.5 -10.5t-34 -11.5t-44 -9t-46.5 -6q-14 -1 -27 -1q-143 0 -213 81q-76 88 -76 245zM336 328q0 -41 38 -70 q28 -21 62 -21q13 0 27 3q14 2 23.5 9t15.5 17q8 10 12 23v53v397q-8 10 -16 19q-18 18 -45 24q-13 3 -24.5 3t-22.5 -3q-21 -6 -36.5 -18t-24.5 -29.5t-9 -36.5v-370z" />
<glyph unicode="h" horiz-adv-x="1005" d="M57 0v143q0 39 16.5 61.5t32.5 33.5q10 8 15.5 16t5.5 29v968q0 16 -6 26.5t-17 18.5q-16 10 -31.5 33t-15.5 57v146h297q23 0 40.5 -11.5t17.5 -35.5v-506q18 14 45 27q23 10 56.5 18t76.5 8q86 0 142 -24.5t89 -68.5t46.5 -107.5t13.5 -141.5v-411q0 -18 6 -26.5 t14 -16.5q16 -10 31.5 -33t15.5 -62v-141h-241q-23 0 -42.5 2t-36 14.5t-25.5 38t-9 72.5v537q0 33 -12.5 53t-31 31.5t-40 13.5t-41.5 0q-25 -6 -43 -21l-14 -14v-446q0 -20 6 -28.5t16 -16.5q14 -10 29.5 -33t15.5 -62v-141h-422z" />
<glyph unicode="i" horiz-adv-x="536" d="M57 0v143q0 39 15.5 62.5t31.5 34.5q8 6 14.5 13t8.5 21v465q-2 23 -25 37q-14 10 -29.5 32.5t-15.5 57.5v158h308q47 0 47 -39v-704q0 -18 6 -27.5t14 -15.5q16 -10 31.5 -34t15.5 -63v-141h-422zM102 1290q0 59 42 102.5t102 43.5q59 0 102 -43t43 -103q0 -59 -43 -101 t-102 -42t-101.5 42t-42.5 101z" />
<glyph unicode="j" horiz-adv-x="509" d="M47 872v152h309q25 0 35 -10t10 -39v-1178q0 -139 -81.5 -223t-208.5 -100q-5 -1 -10 -1q-12 0 -27 3q-23 4 -23 35v167q0 20 9.5 29.5t15.5 13.5q16 8 28.5 27t12.5 53v942q-2 25 -23 37q-16 12 -31.5 35t-15.5 57zM102 1290q0 59 42 102.5t102 43.5q59 0 102 -43 t43 -103q0 -59 -43 -101t-102 -42t-101.5 42t-42.5 101z" />
<glyph unicode="k" horiz-adv-x="956" d="M57 1384v148h301q23 0 37.5 -9.5t14.5 -37.5v-733l196 223q31 29 48.5 39t47.5 10h105h45v-117q0 -94 -49 -114q-14 -6 -25.5 -11.5t-25.5 -21.5l-136 -172l12 -22q13 -23 32.5 -55t42 -71t43 -70.5t34.5 -53.5l13 -23q12 -16 24.5 -29.5t26.5 -19.5q23 -10 39 -36 t16 -73v-135h-51h-84q-51 0 -83 14.5t-58 61.5q-4 4 -32 55t-63 111l-90 155l-28 -28v-95q0 -20 5 -28t15 -15q16 -12 28.5 -34.5t12.5 -61.5v-135h-408v137q0 39 12.5 61.5t28.5 34.5q10 6 16.5 14.5t6.5 28.5v975q0 16 -6 25.5t-17 17.5q-16 10 -31.5 33t-15.5 57z" />
<glyph unicode="l" horiz-adv-x="534" d="M57 0v139q0 39 15.5 61.5t31.5 35.5q8 4 14.5 11t8.5 21v987q-2 14 -8 22.5t-17 16.5q-14 10 -29.5 33t-15.5 57v150h299q23 0 37.5 -16.5t14.5 -40.5v-22.5v-43.5v-101.5v-197.5t1 -331.5t1 -504.5q0 -20 5 -28.5t15 -14.5q16 -12 31.5 -34.5t15.5 -61.5v-137h-420z" />
<glyph unicode="m" horiz-adv-x="1490" d="M57 0v127q0 39 12.5 65.5t28.5 38.5q10 6 20.5 14.5t10.5 35.5v430q0 37 -8 50t-19 19q-10 8 -24.5 20.5t-14.5 28.5v195h261q16 0 25 -6t13 -14q6 -8 9 -19q23 12 51 23q25 10 59.5 17t77.5 7q78 0 137.5 -24.5t94.5 -65.5q23 25 59 45q31 16 76 30.5t106 14.5 q76 0 138.5 -19.5t107.5 -65.5t70.5 -124t25.5 -194v-359q0 -18 6.5 -26.5t14.5 -14.5q16 -10 27.5 -33.5t11.5 -62.5v-133h-232q-49 0 -77.5 29.5t-28.5 85.5v499q0 78 -32 117q-27 32 -65 32q-8 0 -16 -1q-16 -4 -32.5 -10.5t-28.5 -14.5q-14 -8 -29 -20v-447q0 -18 6 -26 t16 -15q16 -10 28.5 -33.5t12.5 -62.5v-133h-280q-33 0 -46.5 35t-13.5 80v514q0 41 -13 67.5t-31.5 41t-40 19.5t-35.5 5q-37 -2 -62 -21q-12 -8 -22 -18v-451q0 -18 6 -27t16 -16q16 -10 31.5 -33.5t15.5 -62.5l-2 -133h-422z" />
<glyph unicode="n" horiz-adv-x="989" d="M57 0v135q0 39 15.5 62.5t31.5 33.5q10 6 15.5 12.5t7.5 26.5v432q0 43 -7 56.5t-16 21.5q-16 10 -31.5 33t-15.5 57v154h289q16 0 24.5 -7t12.5 -16q6 -10 6 -22q20 14 49 27q25 10 59.5 18t77.5 8q76 0 132.5 -26.5t93.5 -73.5t55 -112.5t18 -143.5v-404 q2 -18 11.5 -27.5t19.5 -15.5q27 -18 27 -96v-133h-242q-43 0 -70.5 31.5t-27.5 85.5v532q0 35 -10.5 56.5t-25.5 32t-35.5 12.5t-41.5 0q-20 -4 -33.5 -11.5t-21.5 -15.5t-14 -18v-433q0 -18 5 -26t15 -17q16 -10 31.5 -32.5t15.5 -63.5l-2 -133h-418z" />
<glyph unicode="o" horiz-adv-x="858" d="M57 303v420q0 78 30 136.5t81 96t118.5 57t143.5 19.5q74 0 141.5 -20.5t118.5 -59.5t81 -92t30 -119v-469q0 -68 -30 -119t-80 -86.5t-117.5 -54t-141.5 -18.5q-72 0 -139.5 18.5t-119.5 57.5t-84 97t-32 136zM340 315q0 -23 9 -38t22.5 -23t29 -11t29.5 -3t29.5 3 t30 11t23.5 23.5t9 39.5v404q0 25 -10 39t-23.5 21t-30 10.5t-28.5 3.5t-27.5 -3.5t-29 -11.5t-23.5 -22.5t-10 -38.5v-404z" />
<glyph unicode="p" horiz-adv-x="923" d="M57 -365q0 35 15.5 57.5t31.5 33.5q10 8 16.5 18t6.5 27v968q0 20 -6 28.5t-17 16.5q-16 10 -31.5 33t-15.5 62v145h293q14 0 24.5 -6t18.5 -14t17 -19q8 10 59 28.5t129 18.5q76 0 127 -26.5t83 -73.5t45 -112.5t13 -143.5v-324q0 -78 -16 -145.5t-52 -115.5t-94 -73 q-51 -23 -121 -23q-11 0 -22 1q-33 2 -60.5 7t-47.5 9q-23 6 -43 13v-261q0 -20 6 -28t16 -15q16 -10 31.5 -33.5t15.5 -62.5v-141h-422v151zM410 270q0 -4 8 -10q4 -4 14 -9t27 -7q10 -1 19 -1q16 0 30 4q22 7 38.5 22.5t25 36t8.5 40.5v332q0 59 -34 84q-27 19 -67 19 q-10 0 -20 -1q-12 -2 -21.5 -7t-15.5 -9q-8 -6 -12 -12v-482z" />
<glyph unicode="q" horiz-adv-x="925" d="M57 311v359q0 78 15.5 143.5t49.5 113.5t87 74.5t129 26.5q78 0 134 -19.5t67 -29.5q4 12 12 22q6 8 16.5 15.5t26.5 7.5h274v-145q0 -39 -15 -61.5t-32 -33.5q-10 -8 -16 -16t-6 -29v-970q0 -16 7 -26.5t17 -18.5q16 -10 30.5 -33t14.5 -58v-151h-424v141 q0 39 15.5 62.5t32.5 33.5q10 6 16 14.5t6 28.5v261q-12 -6 -33 -13q-16 -4 -40.5 -9t-57.5 -7q-18 -1 -35 -1q-143 0 -213 76q-78 85 -78 242zM344 338q0 -41 26 -73q18 -24 57 -24q13 0 28 3q16 2 26.5 8t18.5 14t14 19v448q-4 12 -12 21q-8 8 -20.5 15t-30.5 11 q-13 2 -24 2q-31 0 -53 -16q-30 -21 -30 -80v-348z" />
<glyph unicode="r" horiz-adv-x="765" d="M57 0v143q0 39 15.5 62.5t31.5 34.5q10 6 16.5 15t6.5 30v469q0 12 -7 20t-18 14q-16 12 -30.5 35t-14.5 58v143h303q49 0 50 -43v-41q14 16 36 31q18 12 44 24.5t61 22.5q37 10 75 10t48 -2q18 -4 31.5 -12t13.5 -53v-158q0 -31 -20.5 -40t-43.5 -3q-22 5 -48 5 q-13 0 -27 -1q-42 -4 -80.5 -22.5t-64 -52.5t-25.5 -87v-321q0 -18 6 -27.5t16 -15.5q16 -10 31.5 -34t15.5 -63l-2 -141h-420z" />
<glyph unicode="s" horiz-adv-x="862" d="M57 283v112h160q109 0 109 -98q0 -37 23.5 -51.5t60.5 -14.5q51 0 70.5 25t19.5 59q0 35 -32 57.5t-79 44t-103.5 47t-103.5 63.5t-78.5 93.5t-31.5 137.5q0 53 21.5 103t65.5 88t112.5 61.5t162.5 23.5q84 0 150.5 -22.5t112.5 -60.5t70 -88t24 -105v-119h-148 q-55 0 -86 22.5t-31 65.5q0 35 -26.5 51.5t-67.5 16.5q-31 0 -56.5 -15.5t-25.5 -50.5q0 -31 34 -51.5t84 -42t109.5 -46t109.5 -61t84 -90t34 -131.5q0 -92 -32 -152.5t-85 -97.5t-122.5 -52t-145.5 -15q-176 0 -269.5 80t-93.5 213z" />
<glyph unicode="t" horiz-adv-x="708" d="M57 778v117q0 78 28 105.5t93 27.5v168v90q0 82 45 124t99 58q60 19 135 19h8v-459h143v-106q0 -80 -42 -112t-101 -32v-473q0 -41 38 -61q32 -16 73 -16q9 0 18 1q6 0 16.5 1t19.5 -2t15 -13t6 -29v-104q0 -39 -6 -52.5t-37 -25.5q-61 -13 -122 -13q-14 0 -30 1 q-76 4 -138 31.5t-101 82t-39 140.5v532h-121z" />
<glyph unicode="u" horiz-adv-x="978" d="M57 872v152h267q31 0 52 -22.5t21 -61.5v-623q0 -35 26 -57t75 -22q43 0 61.5 13t18.5 15v471q0 16 -6.5 26.5t-16.5 18.5q-16 10 -26.5 33t-10.5 57v152h264q35 0 57.5 -26.5t22.5 -49.5v-653q0 -18 6.5 -26.5t14.5 -14.5q16 -10 27.5 -33.5t11.5 -62.5v-158h-170 q-37 0 -49.5 11.5t-22.5 29.5q-16 -12 -41 -21.5t-53.5 -14.5t-56 -7t-46.5 -2q-76 0 -142.5 18.5t-116.5 57.5t-78.5 97t-28.5 136v432q0 16 -6.5 26.5t-16.5 18.5q-16 10 -26.5 33t-10.5 57z" />
<glyph unicode="v" horiz-adv-x="913" d="M47 872v152h248q31 0 45 -19.5t20 -58.5q0 -4 4.5 -33.5t12.5 -75.5t16 -104.5t19 -118.5q23 -141 49 -317q27 174 49 313q8 59 17.5 116.5t17.5 104t13 77t5 36.5q8 57 23.5 68.5t52.5 11.5h227v-141q0 -39 -12 -62.5t-29 -34.5q-10 -6 -13 -14t-7 -27q-2 -14 -12.5 -57 t-24.5 -104.5t-31.5 -134t-34 -144.5t-31 -134t-22.5 -103q-6 -29 -21.5 -48.5t-41.5 -19.5h-230q-41 0 -56 21.5t-26 62.5q-2 10 -10 44t-20.5 81t-26.5 105.5t-29 117.5q-35 139 -77 307q-4 16 -9.5 25.5t-15.5 17.5q-16 10 -27.5 33t-11.5 57z" />
<glyph unicode="w" horiz-adv-x="1394" d="M37 879v143h215q63 0 76 -72q4 -23 12 -63.5t17.5 -93t19.5 -111.5t20 -117q23 -137 52 -297l126 666q10 53 25.5 70.5t50.5 17.5h97q59 0 77 -78q2 -6 8.5 -38t14.5 -81t19.5 -109.5t21.5 -121.5q25 -145 57 -328q31 174 55 318q10 61 20.5 120.5t20 108.5t14.5 83t7 44 q8 57 28.5 69.5t69.5 12.5h197v-135q0 -39 -10.5 -61.5t-26.5 -32.5q-10 -8 -14 -16.5t-9 -26.5q-2 -12 -9 -51.5t-18 -96.5t-23.5 -125.5t-26 -139.5t-26.5 -136.5t-24 -116.5q-12 -59 -35.5 -71.5t-68.5 -12.5h-225q-41 0 -61.5 19.5t-32.5 76.5l-50 336l-49 -336 q-12 -53 -33.5 -74.5t-68.5 -21.5h-238q-8 0 -20.5 4t-25.5 14.5t-24.5 26.5t-17.5 43q-4 12 -10 47t-15.5 83t-20.5 105.5t-21 116.5q-25 137 -58 303q-8 33 -24 43q-16 12 -25.5 35t-9.5 58z" />
<glyph unicode="x" horiz-adv-x="870" d="M57 0v176q0 25 5.5 35t15.5 18q4 4 15 8.5t16 16.5q37 63 67 115q27 43 49.5 80.5t26.5 42.5q4 10 3 15t-1 9q0 2 -4 14l-4 13l-113 202q-8 20 -39 31q-33 12 -33 72v176h43h164q29 0 50.5 -23.5t35.5 -58.5l101 -254q2 2 6 8t16 23q23 31 20 44t-5 15q-10 8 -20.5 22.5 t-10.5 37.5v184h342v-184q0 -25 -6 -38.5t-17 -21.5q-4 -4 -10 -9t-16 -19l-156 -230q-2 -2 -2 -6q-2 -4 -2 -10t2 -8q0 -2 2 -4l135 -216q4 -10 17.5 -18t27.5 -12q35 -14 35 -72v-174h-27h-161q-35 0 -65 30.5t-46 65.5q-2 4 -17.5 36t-31.5 67q-23 41 -47 94q-2 2 -2 4 l-4 4q-4 0 -4 -4l-2 -2l-25 -55q-8 -12 -2 -17q10 -8 20.5 -15t10.5 -32v-176h-353z" />
<glyph unicode="y" d="M47 866v158h215q66 0 78 -78q0 -4 5 -33.5t13.5 -75.5t18.5 -104.5t20 -118.5q25 -141 56 -315q31 174 55 313q10 59 20.5 116.5t18.5 104t14 76t6 35.5q4 29 10.5 45.5t15.5 23.5t25.5 9t40.5 2h189v-147q0 -39 -5 -52.5t-20 -33.5q-16 -20 -23 -30.5t-12 -33.5 q-12 -55 -33.5 -159.5t-47 -230.5t-52 -258t-49 -242.5t-38 -185.5t-17.5 -83q-10 -39 -44 -62.5t-67 -23.5h-168h-45v178q0 29 15.5 47.5t31.5 24.5q39 4 53.5 8t20.5 22l58 238h-95q-33 0 -39 37q-8 35 -23.5 97.5t-31.5 135t-33.5 147.5t-33 138t-24.5 106.5t-11 49.5 q-10 51 -31 63q-14 12 -25.5 33.5t-11.5 58.5z" />
<glyph unicode="z" horiz-adv-x="827" d="M57 35v198q0 14 5.5 32t27.5 44q6 8 37 45t72 87.5t88 107.5t87 106.5t65.5 82t27.5 36.5q8 20 -16 21h-146q-12 0 -15 -14.5t-3 -24.5v-45h-144q-35 0 -54 20.5t-19 50.5v191q0 51 45 51h92h508q37 0 37 -35v-229q0 -10 -5.5 -21.5t-9.5 -21.5q-8 -10 -14 -23 q-94 -119 -168 -215q-31 -41 -61.5 -80t-55 -69.5t-40 -50t-15.5 -21.5q-4 -10 2 -17.5t16 -7.5h33h8h101q0 29 17.5 61t49.5 32h160v-279q0 -16 -14.5 -31.5t-30.5 -15.5h-174h-137h-324q-16 0 -24.5 11.5t-8.5 23.5z" />
<glyph unicode="{" horiz-adv-x="841" d="M51 670v207q0 6 4 12q4 4 7.5 9t13.5 5h112q43 0 54.5 10.5t13.5 51.5v602q0 59 15.5 108t49 84t89 54.5t133.5 19.5h245v-266h-215q-31 0 -30 -27v-530q0 -80 -19.5 -142.5t-79.5 -87.5q61 -25 80 -89t19 -154v-539q0 -16 11 -23.5t21 -7.5h213v-254h-245 q-133 0 -210 74t-77 180v631q-4 29 -16.5 37t-46.5 8h-111q-10 0 -20.5 6t-10.5 21z" />
<glyph unicode="|" horiz-adv-x="360" d="M57 -23v1569q0 6 6 6h234q6 0 6 -6v-1569q0 -4 -6 -4h-234q-6 0 -6 4z" />
<glyph unicode="}" horiz-adv-x="841" d="M51 -33h215q31 0 31 27v532q0 80 19.5 142.5t78.5 87.5q-61 25 -79.5 89t-18.5 154v535q0 16 -11.5 23.5t-21.5 7.5h-213v268h246q66 0 119 -21.5t90 -57.5t57.5 -84t20.5 -101v-631q4 -29 16 -37t47 -8h111q10 0 20 -6t10 -21v-207q0 -8 -4 -14q-8 -12 -20 -12h-113 q-43 0 -54 -10.5t-13 -51.5v-602q0 -119 -64.5 -188.5t-222.5 -69.5h-246v256z" />
<glyph unicode="~" horiz-adv-x="663" d="M57 766v82q0 23 8.5 34t20.5 19q12 6 22.5 12.5t23.5 11.5t32.5 9t48.5 4q47 0 79 -6t57.5 -12.5t50 -12.5t55.5 -6q39 0 65.5 7t57.5 20q10 8 19 1t9 -18v-92q0 -27 -18 -37q-25 -16 -52.5 -29.5t-76.5 -13.5q-66 0 -131.5 17.5t-122.5 17.5q-41 0 -66.5 -8t-50.5 -16 q-12 -4 -21.5 0t-9.5 16z" />
<glyph unicode="&#xa1;" horiz-adv-x="430" d="M59 49q0 6 2 72.5t5.5 165t7.5 217.5t7 231.5t5 206.5t4 143q4 43 37 43h176q16 0 26.5 -9t10.5 -25q2 -45 5 -135.5t6 -201t7 -228t7.5 -217t5.5 -168t2 -78.5q0 -68 -47 -68h-222q-47 0 -45 51zM80 1325v191q0 16 40 24t85 8q23 0 48.5 -2t48 -5t36.5 -9t14 -12v-4 v-187q0 -8 -15 -14t-38 -9t-48.5 -4.5t-45.5 -1.5q-45 0 -85 7.5t-40 17.5z" />
<glyph unicode="&#xa2;" horiz-adv-x="825" d="M76 319v386q0 78 26.5 139t72.5 103t109.5 64.5t139.5 22.5q74 0 136.5 -24.5t107.5 -66.5t70.5 -94t25.5 -108v-125h-152q-55 0 -93 17.5t-38 77.5q0 53 -18.5 69.5t-46.5 16.5q-29 0 -46.5 -15.5t-17.5 -72.5v-383q0 -49 16.5 -71t53.5 -22t52 21.5t15 54.5v10 q0 47 38 75t91 28h148v-139q0 -68 -25.5 -121t-70.5 -91t-108.5 -58.5t-137.5 -20.5q-76 0 -139.5 21.5t-109.5 63.5t-72.5 103.5t-26.5 138.5zM365 63h114v-165h-114v165zM367 940v166h114v-166h-114z" />
<glyph unicode="&#xa3;" horiz-adv-x="989" d="M57 207q51 29 93 78q35 41 64.5 106.5t29.5 161.5q0 43 -4 67.5t-13 57.5h-125v119h95q-12 37 -25.5 72.5t-24 76.5t-17.5 90t-7 111q-6 111 33 199q16 37 43.5 73.5t70.5 64t103.5 45t142.5 17.5q193 0 293 -97t100 -255v-150h-135q-78 0 -108.5 32t-30.5 98 q0 72 -32 103.5t-89 31.5t-81.5 -26t-33.5 -54q-8 -35 0 -78q0 -49 8.5 -91t20.5 -84t27.5 -85t29.5 -94h172v-119h-151q6 -41 10 -75t4 -87q0 -39 -10 -76t-25.5 -69.5t-31 -63.5t-27.5 -57q41 -4 73.5 -6t53.5 -2q14 0 33.5 7t35 19.5t26.5 28.5t11 37v33q0 47 28 80.5 t83 33.5h162v-194q0 -76 -25.5 -133.5t-68.5 -95.5t-102.5 -57t-127.5 -19q-27 0 -65.5 3t-80.5 7t-82 7t-65 3q-29 0 -49 -3t-35 -7q-16 -6 -26 -10q-14 18 -39 56t-49 75q-29 43 -60 94z" />
<glyph unicode="&#xa5;" horiz-adv-x="1058" d="M47 1403v131h385v-139q0 -37 -3 -55.5t-19 -28.5q-10 -6 -20.5 -14.5t-6.5 -26.5q0 -4 7 -25.5t16.5 -53.5t22.5 -71l26 -78q31 -94 67 -206l4 6q39 115 70 207q12 39 25.5 76.5t23.5 68.5t17.5 52.5t9.5 25.5q4 16 -6.5 24.5t-20.5 14.5q-14 10 -18 32.5t-4 59.5v131 h383v-131q0 -35 -15.5 -57.5t-29.5 -34.5q-8 -4 -20.5 -12.5t-16.5 -24.5q-2 -4 -13.5 -37t-30 -85t-41 -117.5t-44.5 -133.5q-53 -158 -123 -358v-277q0 -20 6 -28.5t16 -16.5q16 -10 31.5 -32.5t15.5 -61.5v-127h-415v129q0 35 16 57.5t33 34.5q8 6 13 14.5t7 26.5v281 q-76 203 -135 362q-25 68 -49.5 134.5t-45 118.5t-32.5 85t-12 37q-4 10 -13.5 18.5t-13.5 12.5q-16 12 -31.5 34.5t-15.5 57.5zM227 440v92q0 4 6 5h592q6 0 6 -5v-92q0 -6 -6 -6h-592q-6 0 -6 6zM227 618v113q0 6 6 6h592q6 0 6 -6v-113q0 -4 -6 -4h-592q-6 0 -6 4z" />
<glyph unicode="&#xa6;" horiz-adv-x="319" d="M57 -59v731q0 6 6 6h193q6 0 6 -6v-731q0 -6 -6 -7h-193q-6 0 -6 7zM57 836v731q0 6 6 6h193q6 0 6 -6v-731q0 -6 -6 -7h-193q-6 0 -6 7z" />
<glyph unicode="&#xa8;" horiz-adv-x="729" d="M139 1286q0 74 23 74h4h100q14 0 18.5 -19.5t4.5 -54.5q0 -78 -21 -78h-102q-27 0 -27 78zM442 1286q0 74 21 74h2l102 2q16 0 19.5 -20.5t3.5 -55.5q0 -78 -19 -78h-106q-23 0 -23 78z" />
<glyph unicode="&#xa9;" horiz-adv-x="1200" d="M57 713q0 111 40 208t118 175t176 118.5t209 40.5q109 0 207 -40.5t176 -118.5t119 -175.5t41 -207.5q0 -111 -41 -208t-119 -175t-176 -119t-207 -41q-111 0 -209 41t-176 119t-118 175t-40 208zM119 713q0 -100 38 -187.5t103.5 -153t152.5 -103.5t187 -38q98 0 186 38 t154 103.5t103.5 152.5t37.5 188q0 100 -37.5 187t-103.5 152.5t-154 103.5t-186 38q-100 0 -187 -38t-152.5 -103.5t-103.5 -152.5t-38 -187zM356 575q0 -111 69 -169t173 -58t171 54.5t67 146.5v98h-103q-39 0 -64.5 -19.5t-25.5 -52.5v-8q0 -23 -10 -37t-37 -14 q-49 0 -49 64v266q0 39 12 50t33 11q18 0 31.5 -11t13.5 -50q0 -41 26.5 -53.5t65.5 -12.5h105v88q0 39 -17.5 75t-49.5 64.5t-75 46t-94 17.5q-104 0 -173 -59.5t-69 -169.5v-267z" />
<glyph unicode="&#xab;" horiz-adv-x="1040" d="M57 612l4 4q98 98 199.5 209t218.5 228q4 4 8 0l88 -92q4 -4 0 -9l-294 -336q-8 -4 0 -8l294 -338q2 -2 0 -8l-86 -86q-4 -4 -8 0q-80 80 -134 135.5t-93 95t-64.5 66.5t-45 48.5t-39 42t-44.5 44.5zM446 612l5 4q98 98 199.5 209t217.5 228q4 4 9 0l88 -92q4 -4 0 -9 l-295 -336q-8 -4 0 -8l295 -338q2 -2 0 -8l-86 -86q-4 -4 -9 0q-80 80 -134 135.5t-93 95t-64.5 66.5t-45 48.5t-39 42t-43.5 44.5z" />
<glyph unicode="&#xac;" horiz-adv-x="958" d="M59 506v207q0 6 7 6h817q6 0 6 -6v-207q0 -6 -6 -6h-817q-6 0 -7 6zM672 311v402q0 6 6 6h205q6 0 6 -6v-402q0 -6 -6 -6h-205q-6 0 -6 6z" />
<glyph unicode="&#xad;" horiz-adv-x="501" d="M57 518v195q0 6 4 6h379q4 0 4 -6v-195q0 -6 -4 -6h-379q-4 0 -4 6z" />
<glyph unicode="&#xae;" horiz-adv-x="876" d="M57 997q0 158 111 269q53 55 122.5 83.5t147.5 28.5q158 1 271 -112q111 -111 110 -269q0 -78 -28.5 -147.5t-81.5 -122.5q-115 -111 -271 -111q-78 0 -147.5 29t-122.5 82t-82 123t-29 147zM119 997q0 -66 25.5 -124t68.5 -101t101 -68.5t124 -25.5t124.5 25.5 t101.5 68.5t68.5 101.5t25.5 123.5q0 66 -25.5 124.5t-68.5 101.5t-101.5 67.5t-124.5 24.5t-124 -24.5t-101 -67.5t-68.5 -101.5t-25.5 -124.5zM305 752v34q0 25 10 31q8 8 9 21v315v10t-5 8q-12 8 -12 33v41h152q49 0 71.5 -30.5t22.5 -79.5v-60q0 -23 -2 -40t-14 -27 q-2 0 -3.5 -3.5t3.5 -5.5q16 -10 16 -23v-38v-102q0 -6 2 -8.5t6 -6.5t12.5 -10t8.5 -18v-41h-78q-16 0 -24.5 16t-8.5 31v119q0 23 -14.5 29.5t-24.5 6.5q-14 0 -17 -2t-3 -10v-106q0 -6 5 -10.5t9 -8.5q8 -6 8 -29v-36h-129zM412 1038q0 -10 20 -10q16 0 28.5 6t12.5 29 v63q0 23 -6 32t-29 9h-20q-6 0 -6 -10v-119z" />
<glyph unicode="&#xb0;" horiz-adv-x="483" d="M57 1255v13v6v10q4 98 45.5 149.5t139.5 51.5q49 0 84.5 -16.5t57.5 -44t32 -63.5t10 -73v-18v-8v-7q-2 -88 -44 -142t-140 -54t-138.5 51t-46.5 145zM160 1251q0 -115 82 -114q37 0 58.5 27.5t21.5 90.5v9v22q0 117 -80 117q-82 0 -82 -111v-18v-6v-17z" />
<glyph unicode="&#xb1;" horiz-adv-x="722" d="M57 516v195q0 6 6 6h187q6 0 6 6v186q0 6 6 6h195q4 0 4 -6v-186q0 -6 6 -6h188q4 0 4 -6v-195q0 -4 -4 -4h-188q-6 0 -6 -6v-189q0 -4 -4 -4h-195q-6 0 -6 4v189q0 6 -6 6h-187q-6 0 -6 4zM61 6v195q0 6 7 6h591q6 0 7 -6v-195q0 -6 -7 -6h-591q-6 0 -7 6z" />
<glyph unicode="&#xb4;" horiz-adv-x="514" d="M119 1243q-6 0 0 6l213 215q0 6 6 0l80 -92q0 -4 -2 -6l-242 -178q-6 -6 -6 0z" />
<glyph unicode="&#xb8;" horiz-adv-x="342" d="M43 -311q2 12 6 20q2 8 4 16.5t4 14.5q4 23 20.5 28t33.5 1l65 -19q8 -2 19.5 4t15.5 25q8 37 -25 45l-67 16v160h88v-86q53 -16 75.5 -58t8.5 -98q-16 -57 -51 -83.5t-88 -14.5z" />
<glyph unicode="&#xbb;" horiz-adv-x="1077" d="M84 272q-4 4 0 9l295 335q8 4 0 9l-295 338q-2 2 0 8l86 86q4 4 8 0q80 -80 134.5 -135.5t93 -95.5t64.5 -66.5t45.5 -48t38.5 -42t44 -44.5l4 -4l-4 -5q-98 -98 -199.5 -208.5t-218.5 -227.5q-4 -4 -8 0zM473 272q-4 4 0 9l295 335q8 4 0 9l-295 338q-2 2 0 8l86 86 q4 4 8 0q80 -80 134.5 -135.5t93.5 -95.5t64.5 -66.5t45 -48t39 -42t43.5 -44.5l4 -4l-4 -5q-98 -98 -199.5 -208.5t-218.5 -227.5q-4 -4 -8 0z" />
<glyph unicode="&#xbf;" horiz-adv-x="737" d="M57 332v213q0 78 34 130t75 94t74.5 80t33.5 85v242q0 23 10.5 33t20.5 10h195q39 0 39 -43v-285q0 -68 -35 -115t-76 -87t-76 -75.5t-35 -78.5v-191q0 -61 18.5 -82.5t35.5 -21.5q16 0 34.5 21.5t18.5 84.5v4v-6v170h119q72 0 104.5 -34t32.5 -77v-36v-35 q0 -158 -79.5 -245t-229.5 -87q-147 0 -230.5 87t-83.5 245zM270 1333v174q0 8 12.5 14.5t33 10.5t45 6t47.5 2q47 0 89 -7t42 -22v-4v-172q0 -16 -43 -22t-88 -6q-23 0 -47.5 2t-45 5t-33 8t-12.5 11z" />
<glyph unicode="&#xc0;" horiz-adv-x="1064" d="M35 0v143q0 35 15.5 57.5t29.5 32.5q10 8 18.5 18.5t12.5 27.5q57 272 104 489q20 92 39 180t34 158t24.5 113t9.5 45q4 16 4 29.5t-10 17.5q-23 10 -37.5 33.5t-14.5 70.5v117h318q47 0 74.5 -28.5t33.5 -63.5q0 -8 11.5 -62.5t30 -137.5t41 -186.5t44.5 -209.5 q53 -250 123 -565q6 -28 31 -46q16 -10 30.5 -32.5t14.5 -57.5v-143h-410v119q0 37 14.5 67.5t31.5 40.5q10 8 17 16.5t7 26.5q-2 16 -4 31q-2 12 -5 25.5t-5 23.5q-4 16 -14.5 21.5t-26.5 5.5h-193q-18 0 -25 -3t-12 -24q-2 -10 -4 -23.5t-6 -25.5q-4 -14 -6 -31 q0 -18 4 -26t15 -17q16 -10 30.5 -41.5t14.5 -68.5v-117h-404zM287 1756q-6 6 0 6l82 94q-2 2 0 2t6 -2l211 -221q4 0 4 -6l-49 -58q0 -4 -6 0zM428 631q-2 -12 2 -15.5t19 -3.5h149q14 0 18.5 3t2.5 16q0 4 -7.5 43t-16.5 94t-20.5 119.5t-20.5 120t-16 92.5t-7 39 q0 8 -5.5 7t-7.5 -5q0 -2 -6 -40t-16 -93.5t-21.5 -119t-21.5 -119.5t-17.5 -95t-7.5 -43z" />
<glyph unicode="&#xc1;" horiz-adv-x="1062" d="M41 0v143q0 35 15.5 57.5t29.5 32.5q10 8 18.5 18.5t12.5 27.5q57 272 104 489q20 92 39 180t34 158t24.5 113t9.5 45q4 16 4 29.5t-10 17.5q-23 10 -37.5 33.5t-14.5 70.5v117h318q47 0 74.5 -28.5t33.5 -63.5q0 -8 11.5 -62.5t30 -137.5t41 -186.5t44.5 -209.5 q53 -250 123 -565q6 -28 31 -46q16 -10 30.5 -32.5t14.5 -57.5v-143h-410v119q0 37 14.5 67.5t31.5 40.5q10 8 17 16.5t7 26.5q-2 16 -4 31q-2 12 -5 25.5t-5 23.5q-4 16 -14.5 21.5t-26.5 5.5h-193q-18 0 -25 -3t-12 -24q-2 -10 -4 -23.5t-6 -25.5q-4 -14 -6 -31 q0 -18 4 -26t15 -17q16 -10 30.5 -41.5t14.5 -68.5v-117h-404zM377 1601q-6 0 0 6l213 215q0 6 6 0l80 -92q0 -4 -2 -6l-242 -178q-6 -6 -6 0zM434 631q-2 -12 2 -15.5t19 -3.5h149q14 0 18.5 3t2.5 16q0 4 -7.5 43t-16.5 94t-20.5 119.5t-20.5 120t-16 92.5t-7 39 q0 8 -5.5 7t-7.5 -5q0 -2 -6 -40t-16 -93.5t-21.5 -119t-21.5 -119.5t-17.5 -95t-7.5 -43z" />
<glyph unicode="&#xc2;" horiz-adv-x="1081" d="M53 0v143q0 35 15.5 57.5t29.5 32.5q10 8 18.5 18.5t12.5 27.5q57 272 104 489q20 92 39 180t34 158t24.5 113t9.5 45q4 16 4 29.5t-10 17.5q-23 10 -37.5 33.5t-14.5 70.5v117h318q47 0 74.5 -28.5t33.5 -63.5q0 -8 11.5 -62.5t30 -137.5t41 -186.5t44.5 -209.5 q53 -250 123 -565q6 -28 31 -46q16 -10 30.5 -32.5t14.5 -57.5v-143h-410v119q0 37 14.5 67.5t31.5 40.5q10 8 17 16.5t7 26.5q-2 16 -4 31q-2 12 -5 25.5t-5 23.5q-4 16 -14.5 21.5t-26.5 5.5h-193q-18 0 -25 -3t-12 -24q-2 -10 -4 -23.5t-6 -25.5q-4 -14 -6 -31 q0 -18 4 -26t15 -17q16 -10 30.5 -41.5t14.5 -68.5v-117h-404zM283 1618q-6 0 0 6l213 213h4h2l213 -213q6 -6 0 -6l-53 -51q-2 -2 -4 0l-156 106q-4 2 -6 0l-156 -106q-4 -4 -4 0zM446 631q-2 -12 2 -15.5t19 -3.5h149q14 0 18.5 3t2.5 16q0 4 -7.5 43t-16.5 94 t-20.5 119.5t-20.5 120t-16 92.5t-7 39q0 8 -5.5 7t-7.5 -5q0 -2 -6 -40t-16 -93.5t-21.5 -119t-21.5 -119.5t-17.5 -95t-7.5 -43z" />
<glyph unicode="&#xc3;" horiz-adv-x="1034" d="M29 0v143q0 35 15.5 57.5t29.5 32.5q10 8 18.5 18.5t12.5 27.5q57 272 104 489q20 92 39 180t34 158t24.5 113t9.5 45q4 16 4 29.5t-10 17.5q-23 10 -37.5 33.5t-14.5 70.5v117h318q47 0 74.5 -28.5t33.5 -63.5q0 -8 11.5 -62.5t30 -137.5t41 -186.5t44.5 -209.5 q53 -250 123 -565q6 -28 31 -46q16 -10 30.5 -32.5t14.5 -57.5v-143h-410v119q0 37 14.5 67.5t31.5 40.5q10 8 17 16.5t7 26.5q-2 16 -4 31q-2 12 -5 25.5t-5 23.5q-4 16 -14.5 21.5t-26.5 5.5h-193q-18 0 -25 -3t-12 -24q-2 -10 -4 -23.5t-6 -25.5q-4 -14 -6 -31 q0 -18 4 -26t15 -17q16 -10 30.5 -41.5t14.5 -68.5v-117h-404zM268 1598v65q0 18 5 27.5t15 17.5q16 10 35 19.5t66 9.5q35 0 59.5 -4t45 -10.5t39 -10.5t40.5 -4q33 0 53.5 5t42.5 16q10 6 16.5 2t6.5 -13v-77q0 -23 -14 -33q-16 -12 -39 -22.5t-60 -10.5q-51 0 -102 14.5 t-98 14.5q-31 0 -50.5 -7.5t-37.5 -15.5q-23 -6 -23 17zM422 631q-2 -12 2 -15.5t19 -3.5h149q14 0 18.5 3t2.5 16q0 4 -7.5 43t-16.5 94t-20.5 119.5t-20.5 120t-16 92.5t-7 39q0 8 -5.5 7t-7.5 -5q0 -2 -6 -40t-16 -93.5t-21.5 -119t-21.5 -119.5t-17.5 -95t-7.5 -43z" />
<glyph unicode="&#xc4;" horiz-adv-x="1034" d="M31 0v143q0 35 15.5 57.5t29.5 32.5q10 8 18.5 18.5t12.5 27.5q57 272 104 489q20 92 39 180t34 158t24.5 113t9.5 45q4 16 4 29.5t-10 17.5q-23 10 -37.5 33.5t-14.5 70.5v117h318q47 0 74.5 -28.5t33.5 -63.5q0 -8 11.5 -62.5t30 -137.5t41 -186.5t44.5 -209.5 q53 -250 123 -565q6 -28 31 -46q16 -10 30.5 -32.5t14.5 -57.5v-143h-410v119q0 37 14.5 67.5t31.5 40.5q10 8 17 16.5t7 26.5q-2 16 -4 31q-2 12 -5 25.5t-5 23.5q-4 16 -14.5 21.5t-26.5 5.5h-193q-18 0 -25 -3t-12 -24q-2 -10 -4 -23.5t-6 -25.5q-4 -14 -6 -31 q0 -18 4 -26t15 -17q16 -10 30.5 -41.5t14.5 -68.5v-117h-404zM243 1653q0 74 23 74h4h100q14 0 18.5 -19.5t4.5 -54.5q0 -78 -21 -78h-102q-27 0 -27 78zM424 631q-2 -12 2 -15.5t19 -3.5h149q14 0 18.5 3t2.5 16q0 4 -7.5 43t-16.5 94t-20.5 119.5t-20.5 120t-16 92.5 t-7 39q0 8 -5.5 7t-7.5 -5q0 -2 -6 -40t-16 -93.5t-21.5 -119t-21.5 -119.5t-17.5 -95t-7.5 -43zM546 1653q0 74 21 74h2l102 2q16 0 19.5 -20.5t3.5 -55.5q0 -78 -19 -78h-106q-23 0 -23 78z" />
<glyph unicode="&#xc5;" horiz-adv-x="1044" d="M47 0v143q0 35 15.5 57.5t29.5 32.5q10 8 18.5 18.5t12.5 27.5q57 272 104 489q20 92 39 180t34 158t24.5 113t9.5 45q4 16 4 29.5t-10 17.5q-23 10 -37.5 33.5t-14.5 70.5v117h318q47 0 74.5 -28.5t33.5 -63.5q0 -8 11.5 -62.5t30 -137.5t41 -186.5t44.5 -209.5 q53 -250 123 -565q6 -28 31 -46q16 -10 30.5 -32.5t14.5 -57.5v-143h-410v119q0 37 14.5 67.5t31.5 40.5q10 8 17 16.5t7 26.5q-2 16 -4 31q-2 12 -5 25.5t-5 23.5q-4 16 -14.5 21.5t-26.5 5.5h-193q-18 0 -25 -3t-12 -24q-2 -10 -4 -23.5t-6 -25.5q-4 -14 -6 -31 q0 -18 4 -26t15 -17q16 -10 30.5 -41.5t14.5 -68.5v-117h-404zM352 1728v8v7v6q4 72 33 108.5t101 36.5q74 0 104.5 -44t30.5 -97v-15v-6v-4q-2 -63 -33 -102t-102 -39q-70 0 -99.5 37t-34.5 104zM426 1726q0 -84 60 -84q29 0 44 19.5t15 66.5v6v17q0 84 -59 84t-60 -80v-12 v-7v-10zM440 631q-2 -12 2 -15.5t19 -3.5h149q14 0 18.5 3t2.5 16q0 4 -7.5 43t-16.5 94t-20.5 119.5t-20.5 120t-16 92.5t-7 39q0 8 -5.5 7t-7.5 -5q0 -2 -6 -40t-16 -93.5t-21.5 -119t-21.5 -119.5t-17.5 -95t-7.5 -43z" />
<glyph unicode="&#xc6;" horiz-adv-x="1368" d="M51 0v102q0 35 15.5 57.5t31.5 35.5q10 6 17.5 16t11.5 27q98 283 176 505q33 94 64.5 186.5t56.5 164t40 116.5t15 47q2 16 -2 27.5t-26 20.5q-23 10 -47.5 35.5t-24.5 72.5v117h199h8h669q25 0 42.5 -18.5t17.5 -34.5v-273h-109q-41 0 -65.5 20.5t-34.5 39.5 q-14 25 -43 24h-123q-10 0 -19.5 -8t-9.5 -20v-320q0 -31 29 -31h217q12 0 22.5 -7t10.5 -21v-185q0 -29 -31 -28h-219q-29 0 -29 -29v-375q0 -12 10.5 -20t20.5 -8h133q16 0 27 20q10 20 19 30.5t57 10.5h137v-246q0 -23 -21.5 -37t-44.5 -14h-133h-166h-409v96q0 12 4 29 q0 45 21.5 67.5t41.5 32.5q16 8 25 31q0 23 1 52.5t-1 43.5q-2 16 -8.5 20.5t-24.5 4.5h-156q-18 0 -26 -3t-10 -24q-2 -10 -7.5 -29.5t-11.5 -39.5q-8 -23 -18 -50q0 -20 4 -28t14 -17q16 -10 30.5 -52t14.5 -79v-55h-383zM475 610q-2 -12 6 -15t23 -3h102q14 0 21.5 3 t5.5 15v43v94.5v120v119.5v92v39q0 8 -5 7t-7 -5q0 -2 -10.5 -40t-27 -93t-35 -118.5t-34.5 -120t-27.5 -95.5t-11.5 -43z" />
<glyph unicode="&#xc7;" horiz-adv-x="921" d="M70 297v950q0 78 35 136.5t92 96.5t130 57t149 19t148.5 -19t128.5 -57t90 -96.5t34 -136.5v-151h-154q-51 0 -85.5 30.5t-34.5 79.5v2q0 20 -5.5 41t-18.5 36t-39 24.5t-66 9.5q-39 0 -64 -10.5t-39 -24.5t-19 -32.5t-5 -32.5v-897q0 -29 36.5 -59t90.5 -30q53 0 92 25 t39 57v21q0 47 27.5 81t82.5 34h162v-154q0 -78 -35 -136.5t-91 -96t-128.5 -56t-148.5 -18.5t-149 18.5t-129 56t-91 96t-35 136.5zM328 -311q2 12 6 20q2 8 4 16.5t4 14.5q4 23 20.5 28t33.5 1l65 -19q8 -2 19.5 4t15.5 25q8 37 -25 45l-67 16v160h88v-86q53 -16 75.5 -58 t8.5 -98q-16 -57 -51 -83.5t-88 -14.5z" />
<glyph unicode="&#xc8;" horiz-adv-x="886" d="M57 0v123q0 45 12.5 68.5t32.5 33.5q25 14 25 43v996q0 33 -27 47q-20 10 -31.5 31.5t-11.5 62.5v129h734q25 0 42 -18.5t17 -34.5v-271h-121q-41 0 -65.5 20.5t-34.5 39.5q-14 25 -43 24h-154q-10 0 -19.5 -9t-9.5 -19v-340q0 -14 9.5 -21.5t21.5 -7.5h258q10 0 21.5 -7 t11.5 -24v-164q0 -29 -31 -28h-260q-31 0 -31 -27v-383q0 -12 10.5 -20t22.5 -8h164q18 0 29 20q4 10 10 24.5t17.5 26.5t27.5 21.5t39 9.5h127v-287q0 -23 -22.5 -37t-45.5 -14h-133h-469h-123zM219 1774q-6 6 0 6l82 94q-2 2 0 2t6 -2l211 -221q4 0 4 -6l-49 -58 q0 -4 -6 0z" />
<glyph unicode="&#xc9;" horiz-adv-x="886" d="M57 0v123q0 45 12.5 68.5t32.5 33.5q25 14 25 43v996q0 33 -27 47q-20 10 -31.5 31.5t-11.5 62.5v129h734q25 0 42 -18.5t17 -34.5v-271h-121q-41 0 -65.5 20.5t-34.5 39.5q-14 25 -43 24h-154q-10 0 -19.5 -9t-9.5 -19v-340q0 -14 9.5 -21.5t21.5 -7.5h258q10 0 21.5 -7 t11.5 -24v-164q0 -29 -31 -28h-260q-31 0 -31 -27v-383q0 -12 10.5 -20t22.5 -8h164q18 0 29 20q4 10 10 24.5t17.5 26.5t27.5 21.5t39 9.5h127v-287q0 -23 -22.5 -37t-45.5 -14h-133h-469h-123zM324 1622q-6 0 0 6l213 215q0 6 6 0l80 -92q0 -4 -2 -6l-242 -178q-6 -6 -6 0 z" />
<glyph unicode="&#xca;" horiz-adv-x="886" d="M57 0v123q0 45 12.5 68.5t32.5 33.5q25 14 25 43v996q0 33 -27 47q-20 10 -31.5 31.5t-11.5 62.5v129h734q25 0 42 -18.5t17 -34.5v-271h-121q-41 0 -65.5 20.5t-34.5 39.5q-14 25 -43 24h-154q-10 0 -19.5 -9t-9.5 -19v-340q0 -14 9.5 -21.5t21.5 -7.5h258q10 0 21.5 -7 t11.5 -24v-164q0 -29 -31 -28h-260q-31 0 -31 -27v-383q0 -12 10.5 -20t22.5 -8h164q18 0 29 20q4 10 10 24.5t17.5 26.5t27.5 21.5t39 9.5h127v-287q0 -23 -22.5 -37t-45.5 -14h-133h-469h-123zM223 1622q-6 0 0 6l213 213h4h2l213 -213q6 -6 0 -6l-53 -51q-2 -2 -4 0 l-156 106q-4 2 -6 0l-156 -106q-4 -4 -4 0z" />
<glyph unicode="&#xcb;" horiz-adv-x="886" d="M57 0v123q0 45 12.5 68.5t32.5 33.5q25 14 25 43v996q0 33 -27 47q-20 10 -31.5 31.5t-11.5 62.5v129h734q25 0 42 -18.5t17 -34.5v-271h-121q-41 0 -65.5 20.5t-34.5 39.5q-14 25 -43 24h-154q-10 0 -19.5 -9t-9.5 -19v-340q0 -14 9.5 -21.5t21.5 -7.5h258q10 0 21.5 -7 t11.5 -24v-164q0 -29 -31 -28h-260q-31 0 -31 -27v-383q0 -12 10.5 -20t22.5 -8h164q18 0 29 20q4 10 10 24.5t17.5 26.5t27.5 21.5t39 9.5h127v-287q0 -23 -22.5 -37t-45.5 -14h-133h-469h-123zM211 1661q0 74 23 74h4h100q14 0 18.5 -19.5t4.5 -54.5q0 -78 -21 -78h-102 q-27 0 -27 78zM514 1661q0 74 21 74h2l102 2q16 0 19.5 -20.5t3.5 -55.5q0 -78 -19 -78h-106q-23 0 -23 78z" />
<glyph unicode="&#xcc;" horiz-adv-x="534" d="M57 0v129q0 35 16.5 57.5t32.5 34.5q10 6 15.5 14.5t5.5 30.5v998v2q0 20 -5 28.5t-16 16.5q-16 12 -32.5 34.5t-16.5 57.5v129h420v-129q0 -35 -16.5 -57.5t-32.5 -34.5q-8 -8 -14 -16.5t-6 -28.5v-2v-998q0 -23 6 -31t14 -14q16 -12 32.5 -34.5t16.5 -57.5v-129h-420z M80 1770q-6 6 0 6l82 94q-2 2 0 2t6 -2l211 -221q4 0 4 -6l-49 -58q0 -4 -6 0z" />
<glyph unicode="&#xcd;" horiz-adv-x="534" d="M57 0v129q0 35 16.5 57.5t32.5 34.5q10 6 15.5 14.5t5.5 30.5v998v2q0 20 -5 28.5t-16 16.5q-16 12 -32.5 34.5t-16.5 57.5v129h420v-129q0 -35 -16.5 -57.5t-32.5 -34.5q-8 -8 -14 -16.5t-6 -28.5v-2v-998q0 -23 6 -31t14 -14q16 -12 32.5 -34.5t16.5 -57.5v-129h-420z M131 1614q-6 0 0 6l213 215q0 6 6 0l80 -92q0 -4 -2 -6l-242 -178q-6 -6 -6 0z" />
<glyph unicode="&#xce;" horiz-adv-x="552" d="M57 0v129q0 35 16.5 57.5t32.5 34.5q10 6 15.5 14.5t5.5 30.5v998v2q0 20 -5 28.5t-16 16.5q-16 12 -32.5 34.5t-16.5 57.5v129h420v-129q0 -35 -16.5 -57.5t-32.5 -34.5q-8 -8 -14 -16.5t-6 -28.5v-2v-998q0 -23 6 -31t14 -14q16 -12 32.5 -34.5t16.5 -57.5v-129h-420z M64 1618q-6 0 0 6l213 213h4h2l213 -213q6 -6 0 -6l-53 -51q-2 -2 -4 0l-156 106q-4 2 -6 0l-156 -106q-4 -4 -4 0z" />
<glyph unicode="&#xcf;" horiz-adv-x="569" d="M59 1642q0 74 23 74h4h100q14 0 18.5 -19.5t4.5 -54.5q0 -78 -21 -78h-102q-27 0 -27 78zM92 0v129q0 35 16.5 57.5t32.5 34.5q10 6 15.5 14.5t5.5 30.5v998v2q0 20 -5 28.5t-16 16.5q-16 12 -32.5 34.5t-16.5 57.5v129h420v-129q0 -35 -16.5 -57.5t-32.5 -34.5 q-8 -8 -14 -16.5t-6 -28.5v-2v-998q0 -23 6 -31t14 -14q16 -12 32.5 -34.5t16.5 -57.5v-129h-420zM362 1642q0 74 21 74h2l102 2q16 0 19.5 -20.5t3.5 -55.5q0 -78 -19 -78h-106q-23 0 -23 78z" />
<glyph unicode="&#xd0;" horiz-adv-x="954" d="M51 -2v123q0 45 11.5 68.5t31.5 33.5q25 14 25 43v346h-51q-4 0 -5 6v195q0 6 5 6h51v438q0 33 -27 48q-41 23 -41 94v131h481q160 0 244 -90t84 -244v-864q0 -154 -84 -244t-244 -90h-481zM397 262q0 -12 4.5 -20.5t24.5 -8.5h61.5t51 8.5t36 26t13.5 54.5v837 q0 49 -3 75t-18.5 38t-47.5 14t-89 2q-27 0 -30 -13t-3 -26v-430h49q4 0 5 -6v-195q0 -6 -5 -6h-49v-350z" />
<glyph unicode="&#xd1;" horiz-adv-x="1099" d="M57 1397v135h285q25 0 43 -24.5t25 -45.5q4 -14 26.5 -70.5t55 -135t70.5 -169t71 -170t56.5 -139t29.5 -76.5q2 -4 3 0.5t1 10.5v551q0 18 -8 27t-19 16q-14 10 -28.5 31.5t-14.5 58.5v135h410v-137q0 -33 -15.5 -54.5t-31.5 -33.5q-6 -4 -11.5 -11.5t-7.5 -21.5v-1215 q0 -37 -13 -48t-36 -11h-125q-57 0 -80 49q-6 12 -32.5 74.5t-63.5 148.5t-78 183.5t-75.5 180.5t-59 139t-24.5 59q0 2 -2 -0.5t-2 -14.5v-551q0 -18 8 -26.5t18 -14.5q14 -10 29.5 -32.5t15.5 -57.5v-137h-411v139q0 33 15 54.5t32 31.5q6 6 11 12.5t7 20.5v1026 q-20 6 -37 21q-14 12 -25.5 34.5t-11.5 57.5zM311 1618v65q0 18 5 27.5t15 17.5q16 10 35 19.5t66 9.5q35 0 59.5 -4t45 -10.5t39 -10.5t40.5 -4q33 0 53.5 5t42.5 16q10 6 16.5 2t6.5 -13v-77q0 -23 -14 -33q-16 -12 -39 -22.5t-60 -10.5q-51 0 -102 14.5t-98 14.5 q-31 0 -50.5 -7.5t-37.5 -15.5q-23 -6 -23 17z" />
<glyph unicode="&#xd2;" horiz-adv-x="972" d="M80 313v910q0 158 109.5 243.5t302.5 85.5q195 0 300 -86t105 -243v-910q0 -158 -106 -242.5t-299 -84.5q-190 0 -301 85t-111 242zM301 1784q-6 6 0 6l82 94q-2 2 0 2t6 -2l211 -221q4 0 4 -6l-49 -58q0 -4 -6 0zM367 332q0 -31 12 -51.5t30.5 -32.5t41 -18.5t41.5 -6.5 q43 0 82 24.5t39 86.5v864q0 37 -14.5 59.5t-34 35t-40 17.5t-32.5 5t-33 -4t-41 -15.5t-35.5 -32t-15.5 -55.5v-876z" />
<glyph unicode="&#xd3;" horiz-adv-x="972" d="M80 313v910q0 158 109.5 243.5t302.5 85.5q195 0 300 -86t105 -243v-910q0 -158 -106 -242.5t-299 -84.5q-190 0 -301 85t-111 242zM348 1644q-6 0 0 6l213 215q0 6 6 0l80 -92q0 -4 -2 -6l-242 -178q-6 -6 -6 0zM367 332q0 -31 12 -51.5t30.5 -32.5t41 -18.5t41.5 -6.5 q43 0 82 24.5t39 86.5v864q0 37 -14.5 59.5t-34 35t-40 17.5t-32.5 5t-33 -4t-41 -15.5t-35.5 -32t-15.5 -55.5v-876z" />
<glyph unicode="&#xd4;" horiz-adv-x="972" d="M80 313v910q0 158 109.5 243.5t302.5 85.5q195 0 300 -86t105 -243v-910q0 -158 -106 -242.5t-299 -84.5q-190 0 -301 85t-111 242zM273 1632q-6 0 0 6l213 213h4h2l213 -213q6 -6 0 -6l-53 -51q-2 -2 -4 0l-156 106q-4 2 -6 0l-156 -106q-4 -4 -4 0zM367 332 q0 -31 12 -51.5t30.5 -32.5t41 -18.5t41.5 -6.5q43 0 82 24.5t39 86.5v864q0 37 -14.5 59.5t-34 35t-40 17.5t-32.5 5t-33 -4t-41 -15.5t-35.5 -32t-15.5 -55.5v-876z" />
<glyph unicode="&#xd5;" horiz-adv-x="972" d="M80 313v910q0 158 109.5 243.5t302.5 85.5q195 0 300 -86t105 -243v-910q0 -158 -106 -242.5t-299 -84.5q-190 0 -301 85t-111 242zM287 1637v65q0 18 5 27.5t15 17.5q16 10 35 19.5t66 9.5q35 0 59.5 -4t45 -10.5t39 -10.5t40.5 -4q33 0 53.5 5t42.5 16q10 6 16.5 2 t6.5 -13v-77q0 -23 -14 -33q-16 -12 -39 -22.5t-60 -10.5q-51 0 -102 14.5t-98 14.5q-31 0 -50.5 -7.5t-37.5 -15.5q-23 -6 -23 17zM367 332q0 -31 12 -51.5t30.5 -32.5t41 -18.5t41.5 -6.5q43 0 82 24.5t39 86.5v864q0 37 -14.5 59.5t-34 35t-40 17.5t-32.5 5t-33 -4 t-41 -15.5t-35.5 -32t-15.5 -55.5v-876z" />
<glyph unicode="&#xd6;" horiz-adv-x="972" d="M80 313v910q0 158 109.5 243.5t302.5 85.5q195 0 300 -86t105 -243v-910q0 -158 -106 -242.5t-299 -84.5q-190 0 -301 85t-111 242zM264 1685q0 74 23 74h4h100q14 0 18.5 -19.5t4.5 -54.5q0 -78 -21 -78h-102q-27 0 -27 78zM367 332q0 -31 12 -51.5t30.5 -32.5t41 -18.5 t41.5 -6.5q43 0 82 24.5t39 86.5v864q0 37 -14.5 59.5t-34 35t-40 17.5t-32.5 5t-33 -4t-41 -15.5t-35.5 -32t-15.5 -55.5v-876zM567 1685q0 74 21 74h2l102 2q16 0 19.5 -20.5t3.5 -55.5q0 -78 -19 -78h-106q-23 0 -23 78z" />
<glyph unicode="&#xd7;" horiz-adv-x="684" d="M59 473q-4 4 0 8l134 131q4 4 0 9l-134 133q-4 4 0 8l138 137q4 4 8 0l133 -131q4 -8 8 0l133 131q4 4 8 0l138 -137q4 -4 0 -8l-133 -133q-4 -4 0 -9l133 -131q4 -4 0 -8l-138 -137q-4 -8 -8 0l-133 131q-4 4 -8 0l-133 -131q-4 -8 -8 0z" />
<glyph unicode="&#xd8;" horiz-adv-x="962" d="M78 4l661 1526q4 4 9 4h102q4 0 4 -4l-641 -1526q0 -4 -6 -4h-125q-4 0 -4 4zM88 313v910q0 158 109.5 243.5t302.5 85.5q195 0 300 -86t105 -243v-910q0 -158 -106 -242.5t-299 -84.5q-190 0 -301 85t-111 242zM375 332q0 -31 12 -51.5t30.5 -32.5t41 -18.5t41.5 -6.5 q43 0 82 24.5t39 86.5v864q0 37 -14.5 59.5t-34 35t-40 17.5t-32.5 5t-33 -4t-41 -15.5t-35.5 -32t-15.5 -55.5v-876z" />
<glyph unicode="&#xd9;" horiz-adv-x="1060" d="M67 1386v146h414v-135q0 -35 -16.5 -63.5t-32.5 -41.5q-10 -8 -15.5 -16t-5.5 -27v-884q0 -80 34 -112t91 -32t91 32t34 112v882q0 18 -9 33.5t-19 24.5q-16 10 -28.5 32.5t-12.5 61.5v133h401v-148q0 -35 -16.5 -57t-32.5 -35q-8 -8 -13.5 -16t-7.5 -27v-956 q0 -78 -32.5 -136.5t-86 -97.5t-123 -57t-145.5 -18t-147.5 18t-127.5 57t-90 97.5t-34 136.5v954q0 18 -6 27.5t-17 15.5q-16 10 -31.5 34t-15.5 62zM387 1778q-6 6 0 6l82 94q-2 2 0 2t6 -2l211 -221q4 0 4 -6l-49 -58q0 -4 -6 0z" />
<glyph unicode="&#xda;" horiz-adv-x="1060" d="M67 1386v146h414v-135q0 -35 -16.5 -63.5t-32.5 -41.5q-10 -8 -15.5 -16t-5.5 -27v-884q0 -80 34 -112t91 -32t91 32t34 112v882q0 18 -9 33.5t-19 24.5q-16 10 -28.5 32.5t-12.5 61.5v133h401v-148q0 -35 -16.5 -57t-32.5 -35q-8 -8 -13.5 -16t-7.5 -27v-956 q0 -78 -32.5 -136.5t-86 -97.5t-123 -57t-145.5 -18t-147.5 18t-127.5 57t-90 97.5t-34 136.5v954q0 18 -6 27.5t-17 15.5q-16 10 -31.5 34t-15.5 62zM398 1626q-6 0 0 6l213 215q0 6 6 0l80 -92q0 -4 -2 -6l-242 -178q-6 -6 -6 0z" />
<glyph unicode="&#xdb;" horiz-adv-x="1060" d="M67 1386v146h414v-135q0 -35 -16.5 -63.5t-32.5 -41.5q-10 -8 -15.5 -16t-5.5 -27v-884q0 -80 34 -112t91 -32t91 32t34 112v882q0 18 -9 33.5t-19 24.5q-16 10 -28.5 32.5t-12.5 61.5v133h401v-148q0 -35 -16.5 -57t-32.5 -35q-8 -8 -13.5 -16t-7.5 -27v-956 q0 -78 -32.5 -136.5t-86 -97.5t-123 -57t-145.5 -18t-147.5 18t-127.5 57t-90 97.5t-34 136.5v954q0 18 -6 27.5t-17 15.5q-16 10 -31.5 34t-15.5 62zM332 1636q-6 0 0 6l213 213h4h2l213 -213q6 -6 0 -6l-53 -51q-2 -2 -4 0l-156 106q-4 2 -6 0l-156 -106q-4 -4 -4 0z" />
<glyph unicode="&#xdc;" horiz-adv-x="1060" d="M67 1386v146h414v-135q0 -35 -16.5 -63.5t-32.5 -41.5q-10 -8 -15.5 -16t-5.5 -27v-884q0 -80 34 -112t91 -32t91 32t34 112v882q0 18 -9 33.5t-19 24.5q-16 10 -28.5 32.5t-12.5 61.5v133h401v-148q0 -35 -16.5 -57t-32.5 -35q-8 -8 -13.5 -16t-7.5 -27v-956 q0 -78 -32.5 -136.5t-86 -97.5t-123 -57t-145.5 -18t-147.5 18t-127.5 57t-90 97.5t-34 136.5v954q0 18 -6 27.5t-17 15.5q-16 10 -31.5 34t-15.5 62zM309 1655q0 74 23 74h4h100q14 0 18.5 -19.5t4.5 -54.5q0 -78 -21 -78h-102q-27 0 -27 78zM612 1655q0 74 21 74h2l102 2 q16 0 19.5 -20.5t3.5 -55.5q0 -78 -19 -78h-106q-23 0 -23 78z" />
<glyph unicode="&#xdd;" horiz-adv-x="1073" d="M77 1403v131h394v-139q0 -37 -3.5 -55.5t-19.5 -28.5q-10 -6 -20.5 -14.5t-6.5 -26.5q0 -4 6.5 -25.5t13.5 -53.5t17.5 -71t20.5 -78q23 -94 53 -206l4 6q31 115 55 207q10 39 20.5 76.5t18.5 68.5t13.5 52.5t7.5 25.5q4 16 -6.5 24.5t-20.5 14.5q-14 10 -18 32.5 t-4 59.5v131h393v-131q0 -35 -15.5 -57.5t-29.5 -34.5q-8 -4 -20.5 -12.5t-16.5 -24.5q-2 -4 -12.5 -37t-26.5 -85t-37.5 -117.5t-42.5 -133.5q-51 -158 -112 -358v-277q0 -20 6 -28.5t16 -16.5q16 -10 31.5 -32.5t15.5 -61.5v-127h-416v129q0 35 16.5 57.5t33.5 34.5 q8 6 13 14.5t7 26.5v281q-70 203 -125 362q-25 68 -47.5 134.5t-40.5 118.5t-29.5 85t-11.5 37q-4 10 -13 18.5t-14 12.5q-16 12 -31.5 34.5t-15.5 57.5zM398 1622q-6 0 0 6l213 215q0 6 6 0l80 -92q0 -4 -2 -6l-242 -178q-6 -6 -6 0z" />
<glyph unicode="&#xe0;" d="M57 322v26q0 82 29 133t77 82t111.5 46.5t135.5 27.5q25 4 43 9t30 11q14 8 25 15v67q0 23 -18.5 39.5t-51.5 16.5q-29 0 -54.5 -12.5t-25.5 -37.5q0 -18 -13 -23t-44 -5h-221v55q0 51 23.5 98.5t69.5 84t112.5 59t154.5 22.5t155 -23.5t111 -63.5t66.5 -90t22.5 -101 l-2 -504q0 -16 9 -27.5t17 -17.5h-2q16 -10 26.5 -40t10.5 -69v-100h-240q-25 0 -40 14.5t-19 30.5q-29 -25 -67.5 -40t-98.5 -15q-100 0 -164.5 26.5t-101.5 72.5t-51.5 106.5t-14.5 126.5zM235 1305q-6 6 0 6l82 94q-2 2 0 2t6 -2l211 -221q4 0 4 -6l-49 -58q0 -4 -6 0z M342 324q0 -55 29.5 -80t66.5 -21q20 2 32.5 8.5t23.5 12.5q8 8 16 14v242q-10 -4 -18 -8t-19.5 -7.5t-21.5 -7.5q-25 -8 -44.5 -15t-34 -21.5t-22.5 -39t-8 -63.5v-14z" />
<glyph unicode="&#xe1;" d="M55 322v26q0 82 29 133t77 82t111.5 46.5t135.5 27.5q25 4 43 9t30 11q14 8 25 15v67q0 23 -18.5 39.5t-51.5 16.5q-29 0 -54.5 -12.5t-25.5 -37.5q0 -18 -13 -23t-44 -5h-221v55q0 51 23.5 98.5t69.5 84t112.5 59t154.5 22.5t155 -23.5t111 -63.5t66.5 -90t22.5 -101 l-2 -504q0 -16 9 -27.5t17 -17.5h-2q16 -10 26.5 -40t10.5 -69v-100h-240q-25 0 -40 14.5t-19 30.5q-29 -25 -67.5 -40t-98.5 -15q-100 0 -164.5 26.5t-101.5 72.5t-51.5 106.5t-14.5 126.5zM283 1120q-6 0 0 6l213 215q0 6 6 0l80 -92q0 -4 -2 -6l-242 -178q-6 -6 -6 0z M340 324q0 -55 29.5 -80t66.5 -21q20 2 32.5 8.5t23.5 12.5q8 8 16 14v242q-10 -4 -18 -8t-19.5 -7.5t-21.5 -7.5q-25 -8 -44.5 -15t-34 -21.5t-22.5 -39t-8 -63.5v-14z" />
<glyph unicode="&#xe2;" horiz-adv-x="897" d="M59 322v26q0 82 29 133t77 82t111.5 46.5t135.5 27.5q25 4 43 9t30 11q14 8 25 15v67q0 23 -18.5 39.5t-51.5 16.5q-29 0 -54.5 -12.5t-25.5 -37.5q0 -18 -13 -23t-44 -5h-221v55q0 51 23.5 98.5t69.5 84t112.5 59t154.5 22.5t155 -23.5t111 -63.5t66.5 -90t22.5 -101 l-2 -504q0 -16 9 -27.5t17 -17.5h-2q16 -10 26.5 -40t10.5 -69v-100h-240q-25 0 -40 14.5t-19 30.5q-29 -25 -67.5 -40t-98.5 -15q-100 0 -164.5 26.5t-101.5 72.5t-51.5 106.5t-14.5 126.5zM217 1094q-6 0 0 6l213 213h4h2l213 -213q6 -6 0 -6l-53 -51q-2 -2 -4 0l-156 106 q-4 2 -6 0l-156 -106q-4 -4 -4 0zM344 324q0 -55 29.5 -80t66.5 -21q20 2 32.5 8.5t23.5 12.5q8 8 16 14v242q-10 -4 -18 -8t-19.5 -7.5t-21.5 -7.5q-25 -8 -44.5 -15t-34 -21.5t-22.5 -39t-8 -63.5v-14z" />
<glyph unicode="&#xe3;" horiz-adv-x="903" d="M63 322v26q0 82 29 133t77 82t111.5 46.5t135.5 27.5q25 4 43 9t30 11q14 8 25 15v67q0 23 -18.5 39.5t-51.5 16.5q-29 0 -54.5 -12.5t-25.5 -37.5q0 -18 -13 -23t-44 -5h-221v55q0 51 23.5 98.5t69.5 84t112.5 59t154.5 22.5t155 -23.5t111 -63.5t66.5 -90t22.5 -101 l-2 -504q0 -16 9 -27.5t17 -17.5h-2q16 -10 26.5 -40t10.5 -69v-100h-240q-25 0 -40 14.5t-19 30.5q-29 -25 -67.5 -40t-98.5 -15q-100 0 -164.5 26.5t-101.5 72.5t-51.5 106.5t-14.5 126.5zM233 1112v65q0 18 5 27.5t15 17.5q16 10 35 19.5t66 9.5q35 0 59.5 -4t45 -10.5 t39 -10.5t40.5 -4q33 0 53.5 5t42.5 16q10 6 16.5 2t6.5 -13v-77q0 -23 -14 -33q-16 -12 -39 -22.5t-60 -10.5q-51 0 -102 14.5t-98 14.5q-31 0 -50.5 -7.5t-37.5 -15.5q-23 -6 -23 17zM348 324q0 -55 29.5 -80t66.5 -21q20 2 32.5 8.5t23.5 12.5q8 8 16 14v242 q-10 -4 -18 -8t-19.5 -7.5t-21.5 -7.5q-25 -8 -44.5 -15t-34 -21.5t-22.5 -39t-8 -63.5v-14z" />
<glyph unicode="&#xe4;" d="M57 322v26q0 82 29 133t77 82t111.5 46.5t135.5 27.5q25 4 43 9t30 11q14 8 25 15v67q0 23 -18.5 39.5t-51.5 16.5q-29 0 -54.5 -12.5t-25.5 -37.5q0 -18 -13 -23t-44 -5h-221v55q0 51 23.5 98.5t69.5 84t112.5 59t154.5 22.5t155 -23.5t111 -63.5t66.5 -90t22.5 -101 l-2 -504q0 -16 9 -27.5t17 -17.5h-2q16 -10 26.5 -40t10.5 -69v-100h-240q-25 0 -40 14.5t-19 30.5q-29 -25 -67.5 -40t-98.5 -15q-100 0 -164.5 26.5t-101.5 72.5t-51.5 106.5t-14.5 126.5zM213 1163q0 74 23 74h4h100q14 0 18.5 -19.5t4.5 -54.5q0 -78 -21 -78h-102 q-27 0 -27 78zM342 324q0 -55 29.5 -80t66.5 -21q20 2 32.5 8.5t23.5 12.5q8 8 16 14v242q-10 -4 -18 -8t-19.5 -7.5t-21.5 -7.5q-25 -8 -44.5 -15t-34 -21.5t-22.5 -39t-8 -63.5v-14zM516 1163q0 74 21 74h2l102 2q16 0 19.5 -20.5t3.5 -55.5q0 -78 -19 -78h-106 q-23 0 -23 78z" />
<glyph unicode="&#xe5;" d="M59 324v26q0 82 29 133t77 82t111.5 46.5t135.5 27.5q25 4 43 9t30 11q14 8 25 15v67q0 23 -18.5 39.5t-51.5 16.5q-29 0 -54.5 -12.5t-25.5 -37.5q0 -18 -13 -23t-44 -5h-221v55q0 51 23.5 98.5t69.5 84t112.5 59t154.5 22.5t155 -23.5t111 -63.5t66.5 -90t22.5 -101 l-2 -504q0 -16 9 -27.5t17 -17.5h-2q16 -10 26.5 -40t10.5 -69v-100h-240q-25 0 -40 14.5t-19 30.5q-29 -25 -67.5 -40t-98.5 -15q-100 0 -164.5 26.5t-101.5 72.5t-51.5 106.5t-14.5 126.5zM292 1218v8v7v6q4 72 33 108.5t101 36.5q74 0 104.5 -44t30.5 -97v-15v-6v-4 q-2 -63 -33 -102t-102 -39q-70 0 -99.5 37t-34.5 104zM344 326q0 -55 29.5 -80t66.5 -21q20 2 32.5 8.5t23.5 12.5q8 8 16 14v242q-10 -4 -18 -8t-19.5 -7.5t-21.5 -7.5q-25 -8 -44.5 -15t-34 -21.5t-22.5 -39t-8 -63.5v-14zM366 1216q0 -84 60 -84q29 0 44 19.5t15 66.5v6 v17q0 84 -59 84t-60 -80v-12v-7v-10z" />
<glyph unicode="&#xe6;" horiz-adv-x="1245" d="M78 303v66q0 166 79 238.5t214 72.5q29 0 48 -5t30 -9q12 -6 20 -13q0 57 -1 77t-1 42q0 45 -47 45q-20 0 -34.5 -9t-14.5 -32q0 -29 -17.5 -53.5t-72.5 -24.5h-187v123q0 102 83 166t259 64q178 0 259 -72t81 -231l-2 -488q0 -16 12.5 -34.5t20.5 -24.5h-2 q16 -10 29.5 -40t13.5 -69v-100h-76q-12 0 -39.5 7t-55.5 18.5t-50.5 22.5t-24.5 19q-6 -14 -28.5 -27.5t-53.5 -24.5t-67.5 -18t-69.5 -7q-100 0 -160.5 25.5t-92.5 69.5t-42 102.5t-10 123.5zM356 322v12q0 -74 8.5 -101.5t43.5 -27.5q33 0 55 20.5t22 55.5v90 q0 47 -14 75.5t-61 34.5q-45 6 -49.5 -37t-4.5 -122zM498 309v385q0 158 91 250t245 92q152 0 242.5 -92t90.5 -250v-131q0 -53 -23.5 -78.5t-90.5 -25.5h-279v-164q0 -23 6 -36t15.5 -20.5t19.5 -9.5t19 -2q14 0 35.5 9.5t21.5 37.5v25q0 47 35 81t88 34h153v-158 q0 -135 -92 -204.5t-241 -69.5q-154 0 -245 85t-91 242zM774 641h111v64q0 39 -4 62.5t-12.5 34.5t-17.5 14t-17 3q-10 0 -20.5 -3t-20 -14t-14.5 -35t-5 -62v-64z" />
<glyph unicode="&#xe7;" horiz-adv-x="845" d="M51 319v386q0 90 30 153.5t80 102t117.5 56t143.5 17.5q74 0 140.5 -21.5t116.5 -60.5t80 -93t30 -118v-104h-201q-29 0 -44 1t-24.5 8t-11.5 22.5t-2 46.5q0 53 -28.5 67.5t-57.5 14.5t-56.5 -15.5t-27.5 -72.5v-398q0 -49 26.5 -63.5t63.5 -14.5t62.5 20.5t25.5 55.5 q0 47 23.5 69.5t77.5 22.5h176v-118q0 -78 -29 -132.5t-78 -90t-115.5 -52t-140.5 -16.5q-76 0 -143.5 16.5t-119.5 54t-83 100t-31 156.5zM289 -311q2 12 6 20q2 8 4 16.5t4 14.5q4 23 20.5 28t33.5 1l65 -19q8 -2 19.5 4t15.5 25q8 37 -25 45l-67 16v160h88v-86 q53 -16 75.5 -58t8.5 -98q-16 -57 -51 -83.5t-88 -14.5z" />
<glyph unicode="&#xe8;" horiz-adv-x="847" d="M22 317v375q0 78 30 141.5t80 107.5t117.5 68.5t143.5 24.5t144.5 -24.5t119.5 -68.5t81 -107.5t30 -141.5v-104q0 -53 -14.5 -79t-79.5 -26h-371v-182q0 -23 11 -36t26.5 -20t31 -9.5t21.5 -2.5q12 0 29.5 3.5t33 10.5t25.5 20.5t10 35.5v2q0 47 34 69.5t89 22.5h154 v-133q0 -68 -32 -119t-85 -85.5t-122.5 -52t-145.5 -17.5t-141.5 21.5t-114.5 63.5t-77 103.5t-28 138.5zM268 1266q-6 6 0 6l82 94q-2 2 0 2t6 -2l211 -221q4 0 4 -6l-49 -58q0 -4 -6 0zM303 639h180v68q0 33 -10 52t-24.5 28.5t-30 12.5t-25.5 3t-24.5 -3t-30 -13.5 t-25.5 -29t-10 -50.5v-68z" />
<glyph unicode="&#xe9;" horiz-adv-x="847" d="M22 317v375q0 78 30 141.5t80 107.5t117.5 68.5t143.5 24.5t144.5 -24.5t119.5 -68.5t81 -107.5t30 -141.5v-104q0 -53 -14.5 -79t-79.5 -26h-371v-182q0 -23 11 -36t26.5 -20t31 -9.5t21.5 -2.5q12 0 29.5 3.5t33 10.5t25.5 20.5t10 35.5v2q0 47 34 69.5t89 22.5h154 v-133q0 -68 -32 -119t-85 -85.5t-122.5 -52t-145.5 -17.5t-141.5 21.5t-114.5 63.5t-77 103.5t-28 138.5zM273 1104q-6 0 0 6l213 215q0 6 6 0l80 -92q0 -4 -2 -6l-242 -178q-6 -6 -6 0zM303 639h180v68q0 33 -10 52t-24.5 28.5t-30 12.5t-25.5 3t-24.5 -3t-30 -13.5 t-25.5 -29t-10 -50.5v-68z" />
<glyph unicode="&#xea;" horiz-adv-x="921" d="M57 317v375q0 78 30 141.5t80 107.5t117.5 68.5t143.5 24.5t144.5 -24.5t119.5 -68.5t81 -107.5t30 -141.5v-104q0 -53 -14.5 -79t-79.5 -26h-371v-182q0 -23 11 -36t26.5 -20t31 -9.5t21.5 -2.5q12 0 29.5 3.5t33 10.5t25.5 20.5t10 35.5v2q0 47 34 69.5t89 22.5h154 v-133q0 -68 -32 -119t-85 -85.5t-122.5 -52t-145.5 -17.5t-141.5 21.5t-114.5 63.5t-77 103.5t-28 138.5zM246 1104q-6 0 0 6l213 213h4h2l213 -213q6 -6 0 -6l-53 -51q-2 -2 -4 0l-156 106q-4 2 -6 0l-156 -106q-4 -4 -4 0zM338 639h180v68q0 33 -10 52t-24.5 28.5 t-30 12.5t-25.5 3t-24.5 -3t-30 -13.5t-25.5 -29t-10 -50.5v-68z" />
<glyph unicode="&#xeb;" horiz-adv-x="921" d="M57 317v375q0 78 30 141.5t80 107.5t117.5 68.5t143.5 24.5t144.5 -24.5t119.5 -68.5t81 -107.5t30 -141.5v-104q0 -53 -14.5 -79t-79.5 -26h-371v-182q0 -23 11 -36t26.5 -20t31 -9.5t21.5 -2.5q12 0 29.5 3.5t33 10.5t25.5 20.5t10 35.5v2q0 47 34 69.5t89 22.5h154 v-133q0 -68 -32 -119t-85 -85.5t-122.5 -52t-145.5 -17.5t-141.5 21.5t-114.5 63.5t-77 103.5t-28 138.5zM231 1163q0 74 23 74h4h100q14 0 18.5 -19.5t4.5 -54.5q0 -78 -21 -78h-102q-27 0 -27 78zM338 639h180v68q0 33 -10 52t-24.5 28.5t-30 12.5t-25.5 3t-24.5 -3 t-30 -13.5t-25.5 -29t-10 -50.5v-68zM534 1163q0 74 21 74h2l102 2q16 0 19.5 -20.5t3.5 -55.5q0 -78 -19 -78h-106q-23 0 -23 78z" />
<glyph unicode="&#xec;" horiz-adv-x="552" d="M74 0h422v141q0 39 -15.5 63t-31.5 34q-8 6 -14.5 15t-6.5 28v704q0 39 -47 39h-307v-158q0 -35 15 -57.5t30 -32.5q23 -14 24 -37v-465q-2 -14 -8 -21t-14 -13q-16 -10 -31.5 -34t-15.5 -63v-143zM96 1321q-6 6 0 6l82 94q-2 2 0 2t6 -2l211 -221q4 0 4 -6l-49 -57 q0 -4 -6 0z" />
<glyph unicode="&#xed;" horiz-adv-x="552" d="M74 0h422v141q0 39 -15.5 63t-31.5 34q-8 6 -14.5 15t-6.5 28v704q0 39 -47 39h-307v-158q0 -35 15 -57.5t30 -32.5q23 -14 24 -37v-465q-2 -14 -8 -21t-14 -13q-16 -10 -31.5 -34t-15.5 -63v-143zM123 1141q-6 0 0 6l213 215q0 6 6 0l80 -92q0 -4 -2 -6l-242 -179 q-6 -6 -6 0z" />
<glyph unicode="&#xee;" horiz-adv-x="552" d="M45 1155q-6 0 0 6l213 213h4h2l213 -213q6 -6 0 -6l-53 -51q-2 -2 -4 0l-156 106q-4 2 -6 0l-156 -106q-4 -4 -4 0zM74 0v143q0 39 15 62.5t32 34.5q8 6 14 13t8 21v465q-2 23 -24 37q-14 10 -29.5 32.5t-15.5 57.5v158h307q47 0 47 -39v-704q0 -18 6.5 -27.5t14.5 -15.5 q16 -10 31.5 -34t15.5 -63v-141h-422z" />
<glyph unicode="&#xef;" horiz-adv-x="552" d="M23 1180q0 74 22 73h4h101q14 0 18 -19t4 -54q0 -78 -20 -78h-103q-27 0 -26 78zM74 0v143q0 39 15 62.5t32 34.5q8 6 14 13t8 21v465q-2 23 -24 37q-14 10 -29.5 32.5t-15.5 57.5v158h307q47 0 47 -39v-704q0 -18 6.5 -27.5t14.5 -15.5q16 -10 31.5 -34t15.5 -63v-141 h-422zM326 1180q0 74 20 73h2l103 2q16 0 19 -20t3 -55q0 -78 -18 -78h-107q-23 0 -22 78z" />
<glyph unicode="&#xf1;" horiz-adv-x="980" d="M49 0v135q0 39 15.5 62.5t31.5 33.5q10 6 15.5 12.5t7.5 26.5v432q0 43 -7 56.5t-16 21.5q-16 10 -31.5 33t-15.5 57v154h289q16 0 24.5 -7t12.5 -16q6 -10 6 -22q20 14 49 27q25 10 59.5 18t77.5 8q76 0 132.5 -26.5t93.5 -73.5t55 -112.5t18 -143.5v-404 q2 -18 11.5 -27.5t19.5 -15.5q27 -18 27 -96v-133h-242q-43 0 -70.5 31.5t-27.5 85.5v532q0 35 -10.5 56.5t-25.5 32t-35.5 12.5t-41.5 0q-20 -4 -33.5 -11.5t-21.5 -15.5t-14 -18v-433q0 -18 5 -26t15 -17q16 -10 31.5 -32.5t15.5 -63.5l-2 -133h-418zM242 1123v65 q0 18 5 27.5t15 17.5q16 10 35 19.5t66 9.5q35 0 59.5 -4t45 -10.5t39 -10.5t40.5 -4q33 0 53.5 5t42.5 16q10 6 16.5 2t6.5 -13v-77q0 -23 -14 -33q-16 -12 -39 -22.5t-60 -10.5q-51 0 -102 14.5t-98 14.5q-31 0 -50.5 -7.5t-37.5 -15.5q-23 -6 -23 17z" />
<glyph unicode="&#xf2;" horiz-adv-x="899" d="M84 303v420q0 78 30 136.5t81 96t118.5 57t143.5 19.5q74 0 141.5 -20.5t118.5 -59.5t81 -92t30 -119v-469q0 -68 -30 -119t-80 -86.5t-117.5 -54t-141.5 -18.5q-72 0 -139.5 18.5t-119.5 57.5t-84 97t-32 136zM274 1276q-6 6 0 6l82 94q-2 2 0 2t6 -2l211 -221q4 0 4 -6 l-49 -58q0 -4 -6 0zM367 315q0 -23 9 -38t22.5 -23t29 -11t29.5 -3t29.5 3t30 11t23.5 23.5t9 39.5v404q0 25 -10 39t-23.5 21t-30 10.5t-28.5 3.5t-27.5 -3.5t-29 -11.5t-23.5 -22.5t-10 -38.5v-404z" />
<glyph unicode="&#xf3;" horiz-adv-x="899" d="M73 303v420q0 78 30 136.5t81 96t118.5 57t143.5 19.5q74 0 141.5 -20.5t118.5 -59.5t81 -92t30 -119v-469q0 -68 -30 -119t-80 -86.5t-117.5 -54t-141.5 -18.5q-72 0 -139.5 18.5t-119.5 57.5t-84 97t-32 136zM299 1104q-6 0 0 6l213 215q0 6 6 0l80 -92q0 -4 -2 -6 l-242 -178q-6 -6 -6 0zM356 315q0 -23 9 -38t22.5 -23t29 -11t29.5 -3t29.5 3t30 11t23.5 23.5t9 39.5v404q0 25 -10 39t-23.5 21t-30 10.5t-28.5 3.5t-27.5 -3.5t-29 -11.5t-23.5 -22.5t-10 -38.5v-404z" />
<glyph unicode="&#xf4;" horiz-adv-x="899" d="M96 303v420q0 78 30 136.5t81 96t118.5 57t143.5 19.5q74 0 141.5 -20.5t118.5 -59.5t81 -92t30 -119v-469q0 -68 -30 -119t-80 -86.5t-117.5 -54t-141.5 -18.5q-72 0 -139.5 18.5t-119.5 57.5t-84 97t-32 136zM246 1108q-6 0 0 6l213 213h4h2l213 -213q6 -6 0 -6 l-53 -51q-2 -2 -4 0l-156 106q-4 2 -6 0l-156 -106q-4 -4 -4 0zM379 315q0 -23 9 -38t22.5 -23t29 -11t29.5 -3t29.5 3t30 11t23.5 23.5t9 39.5v404q0 25 -10 39t-23.5 21t-30 10.5t-28.5 3.5t-27.5 -3.5t-29 -11.5t-23.5 -22.5t-10 -38.5v-404z" />
<glyph unicode="&#xf5;" horiz-adv-x="899" d="M73 303v420q0 78 30 136.5t81 96t118.5 57t143.5 19.5q74 0 141.5 -20.5t118.5 -59.5t81 -92t30 -119v-469q0 -68 -30 -119t-80 -86.5t-117.5 -54t-141.5 -18.5q-72 0 -139.5 18.5t-119.5 57.5t-84 97t-32 136zM250 1112v65q0 18 5 27.5t15 17.5q16 10 35 19.5t66 9.5 q35 0 59.5 -4t45 -10.5t39 -10.5t40.5 -4q33 0 53.5 5t42.5 16q10 6 16.5 2t6.5 -13v-77q0 -23 -14 -33q-16 -12 -39 -22.5t-60 -10.5q-51 0 -102 14.5t-98 14.5q-31 0 -50.5 -7.5t-37.5 -15.5q-23 -6 -23 17zM356 315q0 -23 9 -38t22.5 -23t29 -11t29.5 -3t29.5 3t30 11 t23.5 23.5t9 39.5v404q0 25 -10 39t-23.5 21t-30 10.5t-28.5 3.5t-27.5 -3.5t-29 -11.5t-23.5 -22.5t-10 -38.5v-404z" />
<glyph unicode="&#xf6;" horiz-adv-x="899" d="M69 303v420q0 78 30 136.5t81 96t118.5 57t143.5 19.5q74 0 141.5 -20.5t118.5 -59.5t81 -92t30 -119v-469q0 -68 -30 -119t-80 -86.5t-117.5 -54t-141.5 -18.5q-72 0 -139.5 18.5t-119.5 57.5t-84 97t-32 136zM229 1147q0 74 23 74h4h100q14 0 18.5 -19.5t4.5 -54.5 q0 -78 -21 -78h-102q-27 0 -27 78zM352 315q0 -23 9 -38t22.5 -23t29 -11t29.5 -3t29.5 3t30 11t23.5 23.5t9 39.5v404q0 25 -10 39t-23.5 21t-30 10.5t-28.5 3.5t-27.5 -3.5t-29 -11.5t-23.5 -22.5t-10 -38.5v-404zM532 1147q0 74 21 74h2l102 2q16 0 19.5 -20.5t3.5 -55.5 q0 -78 -19 -78h-106q-23 0 -23 78z" />
<glyph unicode="&#xf7;" horiz-adv-x="866" d="M63 526v180q0 5 8 5h739q5 0 5 -5v-180q0 -5 -5 -5h-739q-8 0 -8 5zM311 240v4v188q0 8 12.5 14.5t32 10.5t44 5t47.5 1q49 0 91 -7.5t42 -21.5v-190q0 -16 -42 -25.5t-91 -9.5t-92.5 7t-43.5 24zM317 801v4v186q0 23 38 28t85 5q25 0 50.5 -2t47 -5t35 -8.5t13.5 -13.5 v-190q0 -8 -13.5 -13.5t-35 -9.5t-47 -6t-50.5 -2q-49 0 -86 5t-37 22z" />
<glyph unicode="&#xf8;" horiz-adv-x="854" d="M78 326v379q0 78 26.5 139t72.5 103t109.5 64.5t139.5 22.5q98 0 174 -41l14 27q4 4 9 4h122q4 0 5 -4l-50 -98q35 -39 55.5 -85t20.5 -94v-448q0 -68 -26.5 -122t-72.5 -94t-110.5 -61.5t-138.5 -21.5q-100 0 -178 41l-17 -31q0 -4 -6 -4h-125q-4 0 -4 4l54 107 q-35 41 -54.5 94t-19.5 119zM354 510l129 254q-10 18 -25.5 25.5t-31.5 7.5q-23 0 -47.5 -18.5t-24.5 -78.5v-190zM369 270q10 -16 25.5 -22t31.5 -6q29 0 50.5 16t21.5 82v184z" />
<glyph unicode="&#xf9;" horiz-adv-x="964" d="M43 872v152h267q31 0 52 -22.5t21 -61.5v-623q0 -35 26 -57t75 -22q43 0 61.5 13t18.5 15v471q0 16 -6.5 26.5t-16.5 18.5q-16 10 -26.5 33t-10.5 57v152h264q35 0 57.5 -26.5t22.5 -49.5v-653q0 -18 6.5 -26.5t14.5 -14.5q16 -10 27.5 -33.5t11.5 -62.5v-158h-170 q-37 0 -49.5 11.5t-22.5 29.5q-16 -12 -41 -21.5t-53.5 -14.5t-56 -7t-46.5 -2q-76 0 -142.5 18.5t-116.5 57.5t-78.5 97t-28.5 136v432q0 16 -6.5 26.5t-16.5 18.5q-16 10 -26.5 33t-10.5 57zM276 1268q-6 6 0 6l82 94q-2 2 0 2t6 -2l211 -221q4 0 4 -6l-49 -58q0 -4 -6 0z " />
<glyph unicode="&#xfa;" horiz-adv-x="964" d="M43 872v152h267q31 0 52 -22.5t21 -61.5v-623q0 -35 26 -57t75 -22q43 0 61.5 13t18.5 15v471q0 16 -6.5 26.5t-16.5 18.5q-16 10 -26.5 33t-10.5 57v152h264q35 0 57.5 -26.5t22.5 -49.5v-653q0 -18 6.5 -26.5t14.5 -14.5q16 -10 27.5 -33.5t11.5 -62.5v-158h-170 q-37 0 -49.5 11.5t-22.5 29.5q-16 -12 -41 -21.5t-53.5 -14.5t-56 -7t-46.5 -2q-76 0 -142.5 18.5t-116.5 57.5t-78.5 97t-28.5 136v432q0 16 -6.5 26.5t-16.5 18.5q-16 10 -26.5 33t-10.5 57zM299 1116q-6 0 0 6l213 215q0 6 6 0l80 -92q0 -4 -2 -6l-242 -178q-6 -6 -6 0z " />
<glyph unicode="&#xfb;" horiz-adv-x="964" d="M43 872v152h267q31 0 52 -22.5t21 -61.5v-623q0 -35 26 -57t75 -22q43 0 61.5 13t18.5 15v471q0 16 -6.5 26.5t-16.5 18.5q-16 10 -26.5 33t-10.5 57v152h264q35 0 57.5 -26.5t22.5 -49.5v-653q0 -18 6.5 -26.5t14.5 -14.5q16 -10 27.5 -33.5t11.5 -62.5v-158h-170 q-37 0 -49.5 11.5t-22.5 29.5q-16 -12 -41 -21.5t-53.5 -14.5t-56 -7t-46.5 -2q-76 0 -142.5 18.5t-116.5 57.5t-78.5 97t-28.5 136v432q0 16 -6.5 26.5t-16.5 18.5q-16 10 -26.5 33t-10.5 57zM225 1122q-6 0 0 6l213 213h4h2l213 -213q6 -6 0 -6l-53 -51q-2 -2 -4 0 l-156 106q-4 2 -6 0l-156 -106q-4 -4 -4 0z" />
<glyph unicode="&#xfc;" horiz-adv-x="964" d="M43 872v152h267q31 0 52 -22.5t21 -61.5v-623q0 -35 26 -57t75 -22q43 0 61.5 13t18.5 15v471q0 16 -6.5 26.5t-16.5 18.5q-16 10 -26.5 33t-10.5 57v152h264q35 0 57.5 -26.5t22.5 -49.5v-653q0 -18 6.5 -26.5t14.5 -14.5q16 -10 27.5 -33.5t11.5 -62.5v-158h-170 q-37 0 -49.5 11.5t-22.5 29.5q-16 -12 -41 -21.5t-53.5 -14.5t-56 -7t-46.5 -2q-76 0 -142.5 18.5t-116.5 57.5t-78.5 97t-28.5 136v432q0 16 -6.5 26.5t-16.5 18.5q-16 10 -26.5 33t-10.5 57zM219 1165q0 74 23 74h4h100q14 0 18.5 -19.5t4.5 -54.5q0 -78 -21 -78h-102 q-27 0 -27 78zM522 1165q0 74 21 74h2l102 2q16 0 19.5 -20.5t3.5 -55.5q0 -78 -19 -78h-106q-23 0 -23 78z" />
<glyph unicode="&#xfd;" horiz-adv-x="935" d="M55 866v158h215q66 0 78 -78q0 -4 5 -33.5t13.5 -75.5t18.5 -104.5t20 -118.5q25 -141 56 -315q31 174 55 313q10 59 20.5 116.5t18.5 104t14 76t6 35.5q4 29 10.5 45.5t15.5 23.5t25.5 9t40.5 2h189v-147q0 -39 -5 -52.5t-20 -33.5q-16 -20 -23 -30.5t-12 -33.5 q-12 -55 -33.5 -159.5t-47 -230.5t-52 -258t-49 -242.5t-38 -185.5t-17.5 -83q-10 -39 -44 -62.5t-67 -23.5h-168h-45v178q0 29 15.5 47.5t31.5 24.5q39 4 53.5 8t20.5 22l58 238h-95q-33 0 -39 37q-8 35 -23.5 97.5t-31.5 135t-33.5 147.5t-33 138t-24.5 106.5t-11 49.5 q-10 51 -31 63q-14 12 -25.5 33.5t-11.5 58.5zM330 1106q-6 0 0 6l213 215q0 6 6 0l80 -92q0 -4 -2 -6l-242 -178q-6 -6 -6 0z" />
<glyph unicode="&#xfe;" horiz-adv-x="800" d="M68 -315v1609q0 6 6 6h233q6 0 6 -6v-309q8 10 45 28.5t115 18.5q76 0 126 -26.5t80 -73.5t42 -112.5t12 -143.5v-365q0 -78 -12 -139t-44 -101t-87 -59.5t-139 -15.5q-33 2 -58.5 7t-42.5 9q-23 6 -37 13v-209v-131q0 -4 -6 -4h-233q-6 0 -6 4zM313 311q2 -12 11 -20 q6 -8 16 -16.5t27 -10.5q27 -4 44 3t27.5 22.5t13.5 36t3 41.5v270q0 59 -17.5 83.5t-70.5 18.5q-12 -2 -22.5 -7t-16.5 -9q-8 -6 -15 -12v-400z" />
<glyph unicode="&#xff;" horiz-adv-x="935" d="M55 866v158h215q66 0 78 -78q0 -4 5 -33.5t13.5 -75.5t18.5 -104.5t20 -118.5q25 -141 56 -315q31 174 55 313q10 59 20.5 116.5t18.5 104t14 76t6 35.5q4 29 10.5 45.5t15.5 23.5t25.5 9t40.5 2h189v-147q0 -39 -5 -52.5t-20 -33.5q-16 -20 -23 -30.5t-12 -33.5 q-12 -55 -33.5 -159.5t-47 -230.5t-52 -258t-49 -242.5t-38 -185.5t-17.5 -83q-10 -39 -44 -62.5t-67 -23.5h-168h-45v178q0 29 15.5 47.5t31.5 24.5q39 4 53.5 8t20.5 22l58 238h-95q-33 0 -39 37q-8 35 -23.5 97.5t-31.5 135t-33.5 147.5t-33 138t-24.5 106.5t-11 49.5 q-10 51 -31 63q-14 12 -25.5 33.5t-11.5 58.5zM241 1147q0 74 23 74h4h100q14 0 18.5 -19.5t4.5 -54.5q0 -78 -21 -78h-102q-27 0 -27 78zM544 1147q0 74 21 74h2l102 2q16 0 19.5 -20.5t3.5 -55.5q0 -78 -19 -78h-106q-23 0 -23 78z" />
<glyph unicode="&#x152;" horiz-adv-x="1359" d="M96 311v910q0 158 95.5 243.5t287.5 85.5q78 0 148 -16h577q25 0 42.5 -18.5t17.5 -34.5v-271h-121q-41 0 -65.5 20.5t-35.5 39.5q-14 25 -43 24h-112q-10 0 -19.5 -9t-9.5 -19v-320q0 -14 9.5 -21t21.5 -7h217q10 0 21.5 -7.5t11.5 -23.5v-185q0 -29 -31 -28h-219 q-31 0 -31 -27v-383q0 -12 10.5 -20t22.5 -8h123q18 0 28 20q4 10 10.5 24.5t17.5 26.5t27.5 21.5t39.5 9.5h127v-287q0 -23 -22.5 -37t-45.5 -14h-133h-428h-10q-66 -16 -146 -16q-190 0 -286.5 85t-96.5 242zM375 330q0 -59 32.5 -84t71.5 -25q43 0 72 24.5t29 86.5v864 q0 37 -11.5 59.5t-27 35t-32.5 17.5t-30 5q-12 0 -29.5 -4t-34 -15.5t-28.5 -32t-12 -55.5v-876z" />
<glyph unicode="&#x153;" horiz-adv-x="1312" d="M475 317v375q0 78 30 141.5t80 107.5t117.5 68.5t143.5 24.5t144.5 -24.5t119.5 -68.5t81 -107.5t30 -141.5v-104q0 -53 -14.5 -79t-79.5 -26h-371v-182q0 -23 11 -36t26.5 -20t31 -9.5t21.5 -2.5q12 0 29.5 3.5t33 10.5t25.5 20.5t10 35.5v2q0 47 34 69.5t89 22.5h154 v-133q0 -68 -32 -119t-85 -85.5t-122.5 -52t-145.5 -17.5t-141.5 21.5t-114.5 63.5t-77 103.5t-28 138.5zM756 639h180v68q0 33 -10 52t-24.5 28.5t-30 12.5t-25.5 3t-24.5 -3t-30 -13.5t-25.5 -29t-10 -50.5v-68zM1091 303v420q0 78 30 136.5t81 96t118.5 57t143.5 19.5 q74 0 141.5 -20.5t118.5 -59.5t81 -92t30 -119v-469q0 -68 -30 -119t-80 -86.5t-117.5 -54t-141.5 -18.5q-72 0 -139.5 18.5t-119.5 57.5t-84 97t-32 136zM1374 315q0 -23 9 -38t22.5 -23t29 -11t29.5 -3t29.5 3t30 11t23.5 23.5t9 39.5v404q0 25 -10 39t-23.5 21t-30 10.5 t-28.5 3.5t-27.5 -3.5t-29 -11.5t-23.5 -22.5t-10 -38.5v-404z" />
<glyph unicode="&#x178;" horiz-adv-x="1058" d="M69 1403v131h394v-139q0 -37 -3.5 -55.5t-19.5 -28.5q-10 -6 -20.5 -14.5t-6.5 -26.5q0 -4 6.5 -25.5t13.5 -53.5t17.5 -71t20.5 -78q23 -94 53 -206l4 6q31 115 55 207q10 39 20.5 76.5t18.5 68.5t13.5 52.5t7.5 25.5q4 16 -6.5 24.5t-20.5 14.5q-14 10 -18 32.5 t-4 59.5v131h393v-131q0 -35 -15.5 -57.5t-29.5 -34.5q-8 -4 -20.5 -12.5t-16.5 -24.5q-2 -4 -12.5 -37t-26.5 -85t-37.5 -117.5t-42.5 -133.5q-51 -158 -112 -358v-277q0 -20 6 -28.5t16 -16.5q16 -10 31.5 -32.5t15.5 -61.5v-127h-416v129q0 35 16.5 57.5t33.5 34.5 q8 6 13 14.5t7 26.5v281q-70 203 -125 362q-25 68 -47.5 134.5t-40.5 118.5t-29.5 85t-11.5 37q-4 10 -13 18.5t-14 12.5q-16 12 -31.5 34.5t-15.5 57.5zM309 1661q0 74 23 74h4h100q14 0 18.5 -19.5t4.5 -54.5q0 -78 -21 -78h-102q-27 0 -27 78zM612 1661q0 74 21 74h2 l102 2q16 0 19.5 -20.5t3.5 -55.5q0 -78 -19 -78h-106q-23 0 -23 78z" />
<glyph unicode="&#x2c6;" horiz-adv-x="589" d="M80 1276q-6 0 0 6l213 213h4h2l213 -213q6 -6 0 -6l-53 -51q-2 -2 -4 0l-156 106q-4 2 -6 0l-156 -106q-4 -4 -4 0z" />
<glyph unicode="&#x2dc;" horiz-adv-x="837" d="M213 1262v65q0 18 5 27.5t15 17.5q16 10 35 19.5t66 9.5q35 0 59.5 -4t45 -10.5t39 -10.5t40.5 -4q33 0 53.5 5t42.5 16q10 6 16.5 2t6.5 -13v-77q0 -23 -14 -33q-16 -12 -39 -22.5t-60 -10.5q-51 0 -102 14.5t-98 14.5q-31 0 -50.5 -7.5t-37.5 -15.5q-23 -6 -23 17z" />
<glyph unicode="&#x2000;" horiz-adv-x="947" />
<glyph unicode="&#x2001;" horiz-adv-x="1894" />
<glyph unicode="&#x2002;" horiz-adv-x="947" />
<glyph unicode="&#x2003;" horiz-adv-x="1894" />
<glyph unicode="&#x2004;" horiz-adv-x="631" />
<glyph unicode="&#x2005;" horiz-adv-x="473" />
<glyph unicode="&#x2006;" horiz-adv-x="315" />
<glyph unicode="&#x2007;" horiz-adv-x="315" />
<glyph unicode="&#x2008;" horiz-adv-x="236" />
<glyph unicode="&#x2009;" horiz-adv-x="378" />
<glyph unicode="&#x200a;" horiz-adv-x="105" />
<glyph unicode="&#x2010;" horiz-adv-x="501" d="M57 518v195q0 6 4 6h379q4 0 4 -6v-195q0 -6 -4 -6h-379q-4 0 -4 6z" />
<glyph unicode="&#x2011;" horiz-adv-x="501" d="M57 518v195q0 6 4 6h379q4 0 4 -6v-195q0 -6 -4 -6h-379q-4 0 -4 6z" />
<glyph unicode="&#x2012;" horiz-adv-x="501" d="M57 518v195q0 6 4 6h379q4 0 4 -6v-195q0 -6 -4 -6h-379q-4 0 -4 6z" />
<glyph unicode="&#x2013;" horiz-adv-x="716" d="M57 514v195q0 6 6 6h592q4 0 4 -6v-195q0 -6 -4 -6h-592q-6 0 -6 6z" />
<glyph unicode="&#x2014;" horiz-adv-x="1083" d="M57 512v195q0 6 6 6h957q6 0 6 -6v-195q0 -6 -6 -6h-957q-6 0 -6 6z" />
<glyph unicode="&#x2018;" horiz-adv-x="366" d="M57 1100v188v39q0 33 4.5 57.5t15.5 45t30.5 43t50.5 53.5q16 16 23 13t20 -13q16 -12 15 -19.5t-21 -27.5q-31 -31 -40.5 -60.5t-2 -52.5t26 -36t42.5 -13q47 0 67.5 -7t20.5 -22v-186q0 -16 -41 -23.5t-88 -7.5t-85 7.5t-38 21.5z" />
<glyph unicode="&#x2019;" horiz-adv-x="366" d="M57 1337v187q0 16 41 22t88 6t85 -6t38 -20v-189v-39q0 -35 -4 -58t-15 -44.5t-30.5 -43.5t-50.5 -52q-16 -16 -23.5 -13t-19.5 13q-16 12 -15 19t21 28q31 31 43 60.5t9 52t-18.5 36t-39.5 13.5q-47 0 -78 6t-31 22z" />
<glyph unicode="&#x201a;" horiz-adv-x="366" d="M57 1337v187q0 16 41 22t88 6t85 -6t38 -20v-189v-39q0 -35 -4 -58t-15 -44.5t-30.5 -43.5t-50.5 -52q-16 -16 -23.5 -13t-19.5 13q-16 12 -15 19t21 28q31 31 43 60.5t9 52t-18.5 36t-39.5 13.5q-47 0 -78 6t-31 22z" />
<glyph unicode="&#x201c;" horiz-adv-x="684" d="M57 1102v188v39q0 33 4.5 57.5t16.5 45t31.5 43t50.5 53.5q16 16 23 13t20 -13q16 -12 15 -19.5t-23 -27.5q-31 -31 -39.5 -60.5t-1 -52t26 -36t42.5 -13.5q47 0 67.5 -7t20.5 -22v-186q0 -16 -41 -23.5t-88 -7.5t-86 7.5t-39 21.5zM375 1102v188v39q0 33 4 57.5t15.5 45 t30.5 43t50 53.5q16 16 23.5 13t19.5 -13q16 -12 15 -19.5t-21 -27.5q-31 -31 -40 -60.5t-2 -52t25.5 -36t43.5 -13.5q47 0 67.5 -7t20.5 -22v-186q0 -16 -41 -23.5t-88 -7.5t-85 7.5t-38 21.5z" />
<glyph unicode="&#x201d;" horiz-adv-x="684" d="M57 1337v187q0 16 41 23t88 7t86 -7t39 -21v-189v-39q0 -35 -4 -58t-15 -43.5t-30.5 -43.5t-50.5 -53q-18 -16 -24.5 -13t-20.5 13q-14 14 -13 20t21 27q31 31 39 60.5t1 52t-25.5 36t-43.5 13.5q-47 0 -67.5 7t-20.5 21zM375 1337v187q0 16 41 23t86 7q47 0 86 -7 t39 -21v-189v-39q0 -35 -4.5 -58t-15.5 -43.5t-30.5 -43.5t-50.5 -53q-18 -16 -24 -13t-19 13q-16 14 -15 20t21 27q31 31 40.5 60.5t1 52t-27 36t-42.5 13.5q-47 0 -66.5 7t-19.5 21z" />
<glyph unicode="&#x201e;" horiz-adv-x="684" d="M57 16v187q0 16 41 23t88 7t86 -7t39 -21v-189v-39q0 -35 -4 -58t-15 -43.5t-30.5 -43t-50.5 -53.5q-18 -16 -24.5 -13t-20.5 13q-14 14 -13 20t21 27q31 31 39 60.5t1 52t-25.5 36t-43.5 13.5q-47 0 -67.5 7t-20.5 21zM375 16v187q0 16 41 23t86 7q47 0 86 -7t39 -21 v-189v-39q0 -35 -4.5 -58t-15.5 -43.5t-30.5 -43t-50.5 -53.5q-18 -16 -24 -13t-19 13q-16 14 -15 20t21 27q31 31 40.5 60.5t1 52t-27 36t-42.5 13.5q-47 0 -66.5 7t-19.5 21z" />
<glyph unicode="&#x2022;" horiz-adv-x="477" d="M57 690v2v271q0 8 17.5 15t44 10t55.5 5t53 2q25 0 54.5 -2t56.5 -6t44 -9t17 -11v-275q0 -8 -17 -14t-44 -11t-56.5 -7.5t-54.5 -2.5t-54.5 2.5t-55 6.5t-43 10t-17.5 14z" />
<glyph unicode="&#x2026;" horiz-adv-x="952" d="M57 0v4v146q0 18 31 25t78 7q49 0 79.5 -7t30.5 -21v-150q0 -16 -30.5 -25.5t-79.5 -9.5t-79 7.5t-30 23.5zM371 0v4v146q0 18 30.5 25t77.5 7q49 0 80 -7t31 -21v-150q0 -16 -31 -25.5t-80 -9.5t-78.5 7.5t-29.5 23.5zM676 0v4v146q0 18 30.5 25t77.5 7q49 0 80 -7 t31 -21v-150q0 -16 -30.5 -25.5t-80.5 -9.5q-49 0 -78.5 7.5t-29.5 23.5z" />
<glyph unicode="&#x202f;" horiz-adv-x="378" />
<glyph unicode="&#x2039;" horiz-adv-x="659" d="M57 612l4 4q98 98 199.5 200t218.5 218q4 4 8 0l95 -94q4 -4 0 -8l-316 -316q-8 -4 0 -8l316 -317q2 -2 0 -8l-95 -93q-4 -4 -8 0l-418 418z" />
<glyph unicode="&#x203a;" horiz-adv-x="669" d="M80 295q-4 4 0 8l266 307q4 4 0 8l-266 310q-2 2 0 8l102 102q4 4 8 0l418 -420q2 -2 4 -2v-2v-2l-4 -2l-418 -417q-4 -4 -8 0z" />
<glyph unicode="&#x205f;" horiz-adv-x="473" />
<glyph unicode="&#x20ac;" horiz-adv-x="1005" d="M57 614v125h144v76h-144v125h144v283q0 78 30.5 139t82 103t119 63.5t142.5 21.5q76 0 143.5 -21.5t119 -63.5t81 -103.5t29.5 -138.5v-174h-164q-51 0 -85.5 31.5t-34.5 80.5v84q0 37 -27 52.5t-68 15.5q-43 0 -66.5 -21.5t-23.5 -77.5v-274h183v-125h-183v-76h183v-125 h-183v-276q0 -16 4 -34.5t14.5 -35t28 -28t43.5 -11.5q53 0 77 27t24 76v39q0 47 27.5 80.5t82.5 33.5h168v-172q0 -78 -29.5 -139t-81 -103t-119 -64.5t-143.5 -22.5t-143 22.5t-118.5 64.5t-82 103.5t-30.5 138.5v301h-144z" />
<glyph unicode="&#x2122;" horiz-adv-x="1138" d="M78 1155v51v45q0 23 12 37.5t35 14.5h313q23 0 33 -16.5t10 -39.5v-45v-47h-53q-12 0 -24.5 9.5t-12.5 23.5q0 8 -10 8h-27q-14 0 -14 -16v-445q0 -10 4 -13t8 -7q6 -4 12.5 -13.5t6.5 -25.5v-60h-185v60q0 16 7.5 25.5t15.5 13.5q4 4 7 8t3 12v447q0 14 -14 14h-25h-8 t-4 -8q0 -33 -49 -33h-41zM504 1243v60h117q6 0 11 -3.5t9 -13.5q12 -29 34.5 -75t44 -92t38.5 -79l16 -34q8 -12 19 0l69 139q31 61 72 139q4 12 10 15.5t14 3.5h103v-60q0 -29 -17 -41q-8 -6 -14 -8v-459q0 -10 3 -13l7 -7q6 -4 13.5 -14.5t7.5 -26.5v-58h-184v58 q0 16 8 26.5t14 14.5l7 7t3 13v266q0 8 -4 0q-25 -47 -45 -83q-16 -33 -31.5 -61t-19.5 -34q-8 -16 -25.5 -16t-25.5 14q-4 6 -19.5 35t-31.5 64q-20 37 -43 86q0 2 -2.5 2t-2.5 -4v-269q0 -10 2.5 -13t6.5 -7q8 -4 15 -14.5t7 -26.5v-58h-184v58q0 16 8 26.5t14 14.5 q4 4 6.5 7t4.5 11v461q-10 2 -19 8q-16 12 -16 41z" />
<glyph unicode="&#xe000;" horiz-adv-x="1024" d="M0 0v1024h1024v-1024h-1024z" />
</font>
</defs>
</svg>
